<?xml version="1.0" encoding="utf-8"?>
<!-- Generator: Adobe Illustrator 25.4.1, SVG Export Plug-In . SVG Version: 6.00 Build 0)  -->
<svg version="1.1" id="Layer_1" xmlns="http://www.w3.org/2000/svg" xmlns:xlink="http://www.w3.org/1999/xlink" x="0px" y="0px"
	 viewBox="0 0 512 120" style="enable-background:new 0 0 512 120;" xml:space="preserve">
<style type="text/css">
	.st0{fill:#FFFFFF;}
</style>
<g>
	<path class="st0" d="M5.9,26.3c7.8-1.5,15.4-2.3,23-2.3c11.4,0,20,2.2,25.6,6.7c5.6,4.5,8.5,11.4,8.5,20.8c0,9-2.8,15.9-8.3,20.5
		c-5.5,4.6-13.8,6.9-24.7,6.9c-1.5,0-4-0.1-7.3-0.2V101H5.9V26.3z M42.7,62.9c2.6-2.3,4-6.1,4-11.3c0-5.2-1.3-9.1-4-11.5
		c-2.6-2.4-6.7-3.6-12.3-3.6c-2.8,0-5.4,0.2-7.8,0.6v28.8c2.5,0.3,5,0.5,7.5,0.5C35.9,66.4,40.1,65.2,42.7,62.9z"/>
	<path class="st0" d="M72.9,101v-83h16.4v83H72.9z"/>
	<path class="st0" d="M136.1,46.2c3.8,1.5,6.6,4,8.4,7.4c1.8,3.4,2.7,8.1,2.7,14V101h-13.6l-1.1-5.5h-0.8c-1.6,2.2-3.8,3.9-6.3,5
		s-5.4,1.6-8.6,1.6c-3.8,0-7-0.7-9.8-2c-2.7-1.4-4.8-3.3-6.3-5.7c-1.5-2.4-2.2-5.3-2.2-8.6c0-5.4,1.9-9.5,5.6-12.5
		c3.8-2.9,9.7-4.7,17.8-5.2l9.1-0.8v-0.7c0-2.6-0.4-4.6-1.3-6.1c-0.8-1.5-2.2-2.5-4-3.2c-1.8-0.6-4.3-1-7.5-1
		c-2.3,0-4.8,0.2-7.5,0.6c-2.7,0.4-5.3,0.9-7.7,1.7V46.3c2.7-0.8,5.6-1.3,8.9-1.7c3.3-0.4,6.4-0.6,9.3-0.6
		C127.4,43.9,132.4,44.6,136.1,46.2z M127,89.8c1.5-0.6,2.9-1.5,4.2-2.7V76.5l-7.5,0.6c-3.1,0.2-5.3,1-6.7,2.1
		c-1.4,1.2-2.1,2.8-2.1,5c0,2.1,0.6,3.7,1.9,4.8c1.3,1.1,3.1,1.6,5.5,1.6C123.9,90.6,125.5,90.3,127,89.8z"/>
	<path class="st0" d="M159,44.8h13.5l1.1,5.7h0.8c2.1-2.1,4.5-3.8,7.3-4.9c2.8-1.1,5.9-1.7,9.2-1.7c5.9,0,10.6,1.8,14,5.3
		c3.4,3.6,5.1,9.1,5.1,16.8v35h-16.4V67c0-3.3-0.7-5.6-2-6.9c-1.3-1.4-3.3-2-5.9-2c-2,0-3.9,0.4-5.7,1.2c-1.9,0.8-3.4,1.9-4.6,3.4
		V101H159V44.8z"/>
	<path class="st0" d="M301.8,38.5h-36.6V57h31.3v13.6h-31.3V101h-16.8v-76h53.3V38.5z"/>
	<path class="st0" d="M310.7,34.4c-1.7-1.5-2.5-3.6-2.5-6.3c0-2.8,0.8-4.9,2.5-6.4c1.7-1.5,4.2-2.2,7.7-2.2c3.4,0,5.9,0.7,7.6,2.2
		c1.7,1.5,2.5,3.6,2.5,6.4c0,2.7-0.8,4.8-2.5,6.3c-1.7,1.5-4.2,2.2-7.6,2.2C314.9,36.6,312.4,35.9,310.7,34.4z M310.1,101V44.8h16.4
		V101H310.1z"/>
	<path class="st0" d="M338.8,44.8h13.5l1.1,5.7h0.8c2.1-2.1,4.5-3.8,7.3-4.9c2.8-1.1,5.9-1.7,9.2-1.7c5.9,0,10.6,1.8,14,5.3
		c3.4,3.6,5.1,9.1,5.1,16.8v35h-16.4V67c0-3.3-0.7-5.6-2-6.9c-1.3-1.4-3.3-2-5.9-2c-2,0-3.9,0.4-5.7,1.2c-1.8,0.8-3.4,1.9-4.6,3.4
		V101h-16.4V44.8z"/>
	<path class="st0" d="M418.9,87.6h37.5V101h-54v-76h53.5v13.4h-36.9v17.1h31.7v13.4h-31.7V87.6z"/>
	<path class="st0" d="M462.9,99.6v-12c5.5,1.7,11.5,2.5,17.8,2.5c3.6,0,6.1-0.5,7.7-1.4c1.6-0.9,2.4-2.3,2.4-4.1
		c0-1.4-0.4-2.5-1.1-3.2s-2.1-1.3-4-1.6l-9.1-1.6c-5.2-1-9.1-2.8-11.5-5.4c-2.4-2.7-3.6-6.2-3.6-10.8c0-3.7,1-6.8,2.9-9.5
		c2-2.7,4.9-4.8,8.9-6.2c4-1.5,8.9-2.2,14.7-2.2c2.7,0,5.3,0.2,7.9,0.5c2.6,0.3,5,0.7,7.1,1.3v12c-4.6-1.2-9.4-1.8-14.6-1.8
		c-7.8,0-11.7,1.9-11.7,5.7c0,1.2,0.4,2.2,1.2,3s2.1,1.3,3.9,1.6l9.1,1.6c5.2,1,9.1,2.7,11.5,5.3c2.5,2.5,3.7,6.2,3.7,11
		c0,3.7-1,7-3,9.7c-2,2.7-4.8,4.8-8.6,6.2c-3.8,1.5-8.3,2.2-13.6,2.2C474.3,102.1,468.2,101.2,462.9,99.6z"/>
</g>
</svg>
