<?xml version="1.0" encoding="utf-8"?>
<!-- Generator: Adobe Illustrator 22.1.0, SVG Export Plug-In . SVG Version: 6.00 Build 0)  -->
<svg version="1.1" id="Layer_1" xmlns="http://www.w3.org/2000/svg" xmlns:xlink="http://www.w3.org/1999/xlink" x="0px" y="0px"
	 viewBox="0 0 384 120" style="enable-background:new 0 0 384 120;" xml:space="preserve">
<style type="text/css">
	.st0{opacity:0.6;fill-rule:evenodd;clip-rule:evenodd;fill:#FFEC00;}
	.st1{opacity:0.5;fill-rule:evenodd;clip-rule:evenodd;fill:#E40058;}
	.st2{opacity:0.6;fill-rule:evenodd;clip-rule:evenodd;fill:#009EE2;}
	.st3{opacity:0.82;fill-rule:evenodd;clip-rule:evenodd;fill:#009EE2;}
	.st4{fill:#009EE2;}
	.st5{opacity:0.82;}
</style>
<g>
	<g>
		<path class="st0" d="M98.7,57.8L77.4,94.6c-2.9,5-9.4,6.7-14.5,3.7L25.3,76.7c-5.1-2.9-6.9-9.5-4-14.5l21.3-36.8
			c2.9-5,9.4-6.7,14.5-3.7l37.6,21.7C99.8,46.3,101.6,52.8,98.7,57.8 M115.5,61.8l-26.2,45.3c-6,10.4-19.6,13.9-30.3,7.8L12.9,88.3
			C2.2,82.1-1.5,68.6,4.5,58.2l26.2-45.3c6-10.4,19.6-13.9,30.3-7.8l46.2,26.7C117.7,37.9,121.5,51.4,115.5,61.8z"/>
		<path class="st1" d="M94.6,77.4L57.8,98.7c-5,2.9-11.5,1.1-14.5-4L21.6,57.1c-2.9-5.1-1.3-11.6,3.7-14.5l36.8-21.3
			c5-2.9,11.5-1.1,14.5,4l21.7,37.6C101.3,68,99.6,74.5,94.6,77.4 M107.1,89.3l-45.3,26.2c-10.4,6-24,2.2-30.1-8.4L5.1,60.9
			c-6.1-10.6-2.6-24.2,7.8-30.3L58.2,4.5c10.4-6,24-2.2,30.1,8.4l26.7,46.2C121.1,69.7,117.6,83.3,107.1,89.3z"/>
		<path class="st2" d="M81.2,92.4H38.7c-5.8,0-10.5-4.8-10.5-10.7V38.3c0-5.9,4.7-10.7,10.5-10.7l42.5,0c5.8,0,10.5,4.8,10.5,10.7
			v43.4C91.8,87.6,87,92.4,81.2,92.4 M86.2,109H33.8C21.8,109,12,99,12,86.7V33.3C12,21,21.8,11,33.8,11h52.3
			c12,0,21.9,10,21.9,22.3v53.4C108,99,98.2,109,86.2,109z"/>
		<path class="st3" d="M75.2,62.7L75.2,62.7L75.2,62.7L75.2,62.7l-10.7,6.2l-10.7,6.2l0,0c-0.5,0.3-1,0.4-1.6,0.4
			c-1.8,0-3.2-1.4-3.2-3.2c0-0.1,0-0.2,0-0.3l0-12l0-12.3v0c0-1.8,1.4-3.2,3.2-3.2c0.6,0,1.1,0.2,1.6,0.4l10.7,6.2l10.7,6.1l0,0
			c1.5,0.9,2.1,2.8,1.2,4.4C76.1,62.1,75.7,62.5,75.2,62.7"/>
	</g>
	<g>
		<path class="st4" d="M152.8,85.1h-16.2v-52h16.2V85.1z"/>
		<path class="st4" d="M212.4,85.1h-16.2v-5.4c-1.1,0.9-2.2,1.8-3.6,2.8c-1.3,1-2.5,1.7-3.5,2.2c-1.3,0.6-2.6,1.1-3.8,1.4
			c-1.3,0.3-2.8,0.5-4.5,0.5c-5.9,0-10.6-2.5-14.1-7.4c-3.5-4.9-5.2-11.5-5.2-19.7c0-4.5,0.6-8.5,1.8-11.8c1.2-3.3,2.8-6.2,4.9-8.7
			c1.9-2.3,4.2-4,6.9-5.3c2.7-1.3,5.5-2,8.5-2c2.7,0,4.9,0.3,6.7,0.9c1.7,0.6,3.8,1.5,6.1,2.7V13.1h16.2V85.1z M196.2,70.8V45.3
			c-0.8-0.4-1.9-0.7-3.1-1c-1.3-0.3-2.4-0.4-3.3-0.4c-3.9,0-6.8,1.4-8.8,4.1c-2,2.7-2.9,6.5-2.9,11.4c0,5.1,0.8,8.8,2.3,11.1
			c1.6,2.3,4.1,3.4,7.6,3.4c1.4,0,2.9-0.3,4.3-0.8C193.7,72.5,195,71.8,196.2,70.8z"/>
		<path class="st4" d="M251.5,86.5c-9.8,0-17.3-2.3-22.6-7c-5.2-4.7-7.8-11.4-7.8-20.1c0-8.5,2.4-15.3,7.3-20.3s11.7-7.6,20.5-7.6
			c8,0,14,2.1,18,6.4c4,4.3,6,10.4,6,18.4v5.8h-35.5c0.2,2.4,0.7,4.4,1.5,6c0.9,1.6,2,2.9,3.4,3.9c1.4,1,3,1.6,4.9,2.1
			c1.9,0.4,3.9,0.6,6.1,0.6c1.9,0,3.7-0.2,5.6-0.6c1.8-0.4,3.5-1,5-1.6c1.3-0.6,2.6-1.2,3.7-1.9c1.1-0.7,2-1.3,2.8-1.8h1.7v13.4
			c-1.3,0.5-2.5,1-3.6,1.5c-1.1,0.4-2.6,0.9-4.5,1.4c-1.8,0.5-3.6,0.8-5.4,1.1C256.4,86.4,254.2,86.5,251.5,86.5z M256.8,52.5
			c-0.1-3.4-0.9-6-2.4-7.8c-1.5-1.8-3.8-2.7-6.9-2.7c-3.1,0-5.6,0.9-7.4,2.8c-1.8,1.9-2.8,4.4-2.9,7.7H256.8z"/>
		<path class="st4" d="M309.8,79.6c-1.1,0.9-2.1,1.8-3,2.5c-0.9,0.7-2.1,1.5-3.5,2.2c-1.5,0.7-2.9,1.3-4.2,1.6
			c-1.4,0.4-3.3,0.6-5.8,0.6c-4.6,0-8.4-1.5-11.5-4.6c-3-3.1-4.6-7-4.6-11.7c0-3.9,0.8-7,2.3-9.4c1.5-2.4,3.8-4.3,6.7-5.6
			c2.9-1.4,6.4-2.4,10.5-3c4.1-0.6,8.5-1,13.2-1.3v-0.3c0-2.9-1.1-4.9-3.2-6c-2.1-1.1-5.3-1.6-9.5-1.6c-1.9,0-4.2,0.3-6.7,1
			c-2.6,0.7-5.1,1.6-7.5,2.7h-1.4V34.3c1.6-0.5,4.2-1,7.8-1.6c3.6-0.6,7.2-0.9,10.8-0.9c9,0,15.5,1.5,19.6,4.5
			c4.1,3,6.1,7.5,6.1,13.6v35.4h-16.1V79.6z M309.8,71.6V60.7c-2.7,0.3-5,0.5-6.7,0.7c-1.7,0.2-3.4,0.6-5,1.2
			c-1.4,0.5-2.5,1.2-3.3,2.2c-0.8,1-1.2,2.3-1.2,4c0,2.4,0.7,4.1,2,5c1.3,0.9,3.2,1.4,5.8,1.4c1.4,0,2.9-0.3,4.4-1
			C307.3,73.7,308.6,72.8,309.8,71.6z"/>
		<path class="st4" d="M353.8,86.6c-3.8,0-7.4-0.4-10.9-1.3c-3.4-0.8-6.2-1.8-8.5-2.9V68.7h1.3c0.8,0.6,1.7,1.2,2.6,1.9
			c1,0.7,2.4,1.5,4.1,2.2c1.5,0.7,3.2,1.3,5.1,1.8c1.9,0.5,4,0.8,6.2,0.8c2.3,0,4.3-0.4,6-1.1c1.7-0.7,2.6-1.8,2.6-3.4
			c0-1.2-0.4-2.1-1.2-2.7c-0.8-0.6-2.4-1.2-4.7-1.8c-1.2-0.3-2.8-0.6-4.7-1c-1.9-0.4-3.6-0.8-5-1.2c-4.1-1.3-7.1-3.1-9.2-5.6
			c-2.1-2.5-3.1-5.7-3.1-9.8c0-2.3,0.5-4.5,1.6-6.6c1.1-2.1,2.6-3.9,4.7-5.5c2.1-1.6,4.6-2.8,7.7-3.8c3-0.9,6.5-1.4,10.3-1.4
			c3.6,0,7,0.4,10,1.1c3.1,0.7,5.6,1.6,7.7,2.6v13.2h-1.3c-0.6-0.4-1.4-1-2.6-1.7c-1.2-0.7-2.4-1.4-3.5-1.9
			c-1.4-0.6-2.9-1.1-4.6-1.5c-1.7-0.4-3.4-0.6-5.2-0.6c-2.3,0-4.3,0.4-6,1.2c-1.6,0.8-2.4,1.9-2.4,3.2c0,1.2,0.4,2.1,1.2,2.8
			c0.8,0.7,2.5,1.3,5.2,2c1.4,0.3,3,0.7,4.8,1c1.8,0.3,3.5,0.8,5.2,1.3c3.7,1.2,6.6,3,8.5,5.3c1.9,2.3,2.9,5.4,2.9,9.3
			c0,2.4-0.6,4.8-1.7,7c-1.1,2.2-2.8,4.1-4.9,5.6c-2.2,1.6-4.8,2.9-7.8,3.8S358,86.6,353.8,86.6z"/>
	</g>
	<g class="st5">
		<path class="st4" d="M136.7,108.7V96.4h7.7v1.5h-6.1v3.4h5.7v1.5h-5.7v4.6h6.1v1.5H136.7z"/>
		<path class="st4" d="M159.4,102.6c0,1.1-0.2,2.1-0.7,3.1c-0.5,0.9-1.1,1.6-1.8,2.1c-0.6,0.4-1.3,0.7-1.9,0.8s-1.5,0.2-2.5,0.2
			h-2.8V96.4h2.8c1.2,0,2.1,0.1,2.7,0.3c0.7,0.2,1.2,0.4,1.7,0.7c0.8,0.5,1.4,1.2,1.8,2.1C159.2,100.3,159.4,101.4,159.4,102.6z
			 M157.7,102.5c0-1-0.2-1.8-0.5-2.4c-0.3-0.7-0.8-1.2-1.4-1.6c-0.4-0.3-0.9-0.5-1.4-0.6c-0.5-0.1-1.1-0.2-1.9-0.2h-1.3v9.5h1.3
			c0.7,0,1.4-0.1,1.9-0.2c0.5-0.1,1-0.3,1.5-0.6c0.6-0.4,1-0.9,1.3-1.5C157.6,104.3,157.7,103.5,157.7,102.5z"/>
		<path class="st4" d="M168.9,109c-0.7,0-1.4-0.1-1.9-0.3c-0.5-0.2-1-0.5-1.4-0.9c-0.4-0.4-0.7-0.9-0.9-1.5
			c-0.2-0.6-0.3-1.3-0.3-2.2v-7.7h1.6v7.7c0,0.6,0,1,0.1,1.4c0.1,0.4,0.2,0.7,0.4,1c0.2,0.3,0.5,0.6,0.9,0.8
			c0.4,0.2,0.8,0.3,1.4,0.3c0.5,0,1-0.1,1.4-0.3c0.4-0.2,0.7-0.4,0.9-0.8c0.2-0.3,0.3-0.7,0.4-1c0.1-0.4,0.1-0.8,0.1-1.4v-7.7h1.6
			v7.7c0,0.9-0.1,1.6-0.3,2.2c-0.2,0.6-0.5,1.1-0.9,1.6c-0.4,0.4-0.9,0.7-1.4,0.9C170.3,108.9,169.7,109,168.9,109z"/>
		<path class="st4" d="M184,109c-0.8,0-1.5-0.1-2.2-0.4c-0.7-0.3-1.3-0.7-1.8-1.2c-0.5-0.5-0.9-1.2-1.1-2c-0.3-0.8-0.4-1.7-0.4-2.8
			c0-1,0.1-1.9,0.4-2.7c0.3-0.8,0.6-1.4,1.1-2c0.5-0.6,1.1-1,1.8-1.3c0.7-0.3,1.4-0.4,2.3-0.4c0.4,0,0.8,0,1.2,0.1
			c0.4,0.1,0.7,0.1,1,0.2c0.3,0.1,0.5,0.2,0.8,0.3c0.3,0.1,0.6,0.3,0.8,0.4v2h-0.1c-0.1-0.1-0.3-0.3-0.6-0.5
			c-0.2-0.2-0.5-0.4-0.8-0.6c-0.3-0.2-0.7-0.3-1-0.4c-0.4-0.1-0.8-0.2-1.3-0.2c-0.5,0-1,0.1-1.5,0.3c-0.5,0.2-0.9,0.5-1.2,1
			c-0.3,0.4-0.6,0.9-0.8,1.6c-0.2,0.6-0.3,1.4-0.3,2.1c0,0.8,0.1,1.6,0.3,2.2c0.2,0.6,0.5,1.1,0.8,1.5c0.3,0.4,0.7,0.7,1.2,0.9
			c0.5,0.2,1,0.3,1.5,0.3c0.5,0,0.9-0.1,1.3-0.2c0.4-0.1,0.8-0.3,1.1-0.4c0.3-0.2,0.6-0.3,0.8-0.5c0.2-0.2,0.4-0.3,0.5-0.5h0.1v2
			c-0.3,0.1-0.5,0.2-0.8,0.4c-0.2,0.1-0.5,0.2-0.9,0.3c-0.4,0.1-0.7,0.2-1,0.3C184.9,108.9,184.5,109,184,109z"/>
		<path class="st4" d="M191.4,108.7l4.2-12.4h2l4.2,12.4H200l-1.1-3.5h-4.7l-1.1,3.5H191.4z M198.4,103.9l-1.9-5.8l-1.9,5.8H198.4z"
			/>
		<path class="st4" d="M211.2,109c-0.8,0-1.5-0.1-2.2-0.4c-0.7-0.3-1.3-0.7-1.8-1.2c-0.5-0.5-0.9-1.2-1.1-2
			c-0.3-0.8-0.4-1.7-0.4-2.8c0-1,0.1-1.9,0.4-2.7c0.3-0.8,0.6-1.4,1.1-2c0.5-0.6,1.1-1,1.8-1.3c0.7-0.3,1.4-0.4,2.3-0.4
			c0.4,0,0.8,0,1.2,0.1c0.4,0.1,0.7,0.1,1,0.2c0.3,0.1,0.5,0.2,0.8,0.3c0.3,0.1,0.6,0.3,0.8,0.4v2h-0.1c-0.1-0.1-0.3-0.3-0.6-0.5
			s-0.5-0.4-0.8-0.6c-0.3-0.2-0.7-0.3-1-0.4c-0.4-0.1-0.8-0.2-1.3-0.2c-0.5,0-1,0.1-1.5,0.3c-0.5,0.2-0.9,0.5-1.2,1
			c-0.3,0.4-0.6,0.9-0.8,1.6c-0.2,0.6-0.3,1.4-0.3,2.1c0,0.8,0.1,1.6,0.3,2.2c0.2,0.6,0.5,1.1,0.8,1.5c0.3,0.4,0.7,0.7,1.2,0.9
			c0.5,0.2,1,0.3,1.5,0.3c0.5,0,0.9-0.1,1.3-0.2c0.4-0.1,0.8-0.3,1.1-0.4c0.3-0.2,0.6-0.3,0.8-0.5c0.2-0.2,0.4-0.3,0.5-0.5h0.1v2
			c-0.3,0.1-0.5,0.2-0.8,0.4c-0.2,0.1-0.5,0.2-0.9,0.3c-0.4,0.1-0.7,0.2-1,0.3C212,108.9,211.6,109,211.2,109z"/>
		<path class="st4" d="M224.2,108.7h-4.8v-1.3h1.6v-9.8h-1.6v-1.3h4.8v1.3h-1.6v9.8h1.6V108.7z"/>
		<path class="st4" d="M238.4,97.8c0.5,0.5,0.8,1.2,1.1,2c0.3,0.8,0.4,1.7,0.4,2.7c0,1-0.1,1.9-0.4,2.7c-0.3,0.8-0.6,1.5-1.1,2
			c-0.5,0.6-1.1,1-1.8,1.3c-0.7,0.3-1.4,0.4-2.2,0.4c-0.8,0-1.6-0.1-2.3-0.4c-0.7-0.3-1.2-0.7-1.7-1.3c-0.5-0.5-0.8-1.2-1.1-2
			c-0.3-0.8-0.4-1.7-0.4-2.7c0-1,0.1-2,0.4-2.7c0.3-0.8,0.6-1.5,1.1-2c0.5-0.5,1-1,1.7-1.2c0.7-0.3,1.4-0.4,2.3-0.4
			c0.8,0,1.6,0.1,2.3,0.4C237.4,96.9,237.9,97.3,238.4,97.8z M238.2,102.6c0-0.8-0.1-1.5-0.3-2.2c-0.2-0.6-0.4-1.2-0.7-1.6
			c-0.3-0.4-0.7-0.7-1.2-1c-0.5-0.2-1-0.3-1.6-0.3c-0.6,0-1.1,0.1-1.6,0.3s-0.8,0.5-1.2,1c-0.3,0.4-0.6,0.9-0.8,1.6
			c-0.2,0.6-0.3,1.4-0.3,2.2c0,1.6,0.3,2.9,1,3.7c0.7,0.9,1.6,1.3,2.7,1.3c1.1,0,2.1-0.4,2.7-1.3
			C237.8,105.4,238.2,104.2,238.2,102.6z M236.7,91.7l-2.3,3.1h-1.2l1.5-3.1H236.7z"/>
		<path class="st4" d="M253.9,108.7h-1.8l-5.5-10.7v10.7h-1.5V96.4h2.3l5,9.8v-9.8h1.5V108.7z"/>
		<path class="st4" d="M272.4,108.9c-1.5,0-2.6-0.4-3.4-1.2c-0.8-0.8-1.2-2-1.2-3.5c0-1.5,0.4-2.7,1.2-3.6c0.8-0.9,1.8-1.3,3.1-1.3
			c0.6,0,1.1,0.1,1.5,0.2c0.4,0.2,0.8,0.4,1.2,0.8c0.3,0.4,0.6,0.8,0.8,1.3c0.2,0.5,0.3,1.1,0.3,1.9v0.8h-6.4c0,1.1,0.3,1.9,0.8,2.5
			c0.5,0.6,1.3,0.9,2.2,0.9c0.3,0,0.7,0,1-0.1c0.3-0.1,0.6-0.2,0.9-0.3c0.3-0.1,0.5-0.3,0.7-0.4c0.2-0.1,0.4-0.2,0.5-0.3h0.1v1.7
			c-0.2,0.1-0.4,0.2-0.7,0.3c-0.3,0.1-0.5,0.2-0.7,0.3c-0.3,0.1-0.6,0.1-0.8,0.2C273.1,108.9,272.8,108.9,272.4,108.9z M274.3,103.1
			c0-0.4-0.1-0.8-0.1-1.1c-0.1-0.3-0.2-0.6-0.4-0.8c-0.2-0.2-0.4-0.4-0.7-0.5c-0.3-0.1-0.6-0.2-1.1-0.2c-0.4,0-0.8,0.1-1.1,0.2
			c-0.3,0.1-0.6,0.3-0.8,0.5c-0.2,0.2-0.4,0.5-0.5,0.8c-0.1,0.3-0.2,0.6-0.2,1H274.3z"/>
		<path class="st4" d="M283.3,109c-0.6,0-1.2-0.1-1.7-0.2c-0.5-0.2-1-0.3-1.3-0.5v-1.8h0.1c0.1,0.1,0.3,0.2,0.5,0.3
			c0.2,0.1,0.4,0.3,0.7,0.4c0.3,0.1,0.6,0.2,0.9,0.3c0.3,0.1,0.6,0.1,1,0.1c0.2,0,0.5,0,0.8-0.1c0.3-0.1,0.5-0.1,0.6-0.2
			c0.2-0.1,0.3-0.3,0.4-0.4c0.1-0.1,0.1-0.4,0.1-0.6c0-0.4-0.1-0.7-0.3-0.8c-0.2-0.2-0.6-0.3-1.1-0.5c-0.2,0-0.5-0.1-0.8-0.2
			c-0.3-0.1-0.6-0.1-0.9-0.2c-0.7-0.2-1.2-0.5-1.5-1c-0.3-0.4-0.5-0.9-0.5-1.6c0-0.8,0.3-1.5,0.9-2c0.6-0.5,1.5-0.8,2.5-0.8
			c0.5,0,1,0.1,1.6,0.2c0.5,0.1,1,0.3,1.3,0.5v1.7h-0.1c-0.4-0.3-0.8-0.6-1.3-0.7c-0.5-0.2-1-0.3-1.5-0.3c-0.5,0-0.9,0.1-1.3,0.3
			c-0.4,0.2-0.5,0.5-0.5,1c0,0.4,0.1,0.7,0.3,0.9c0.2,0.2,0.5,0.3,1,0.5c0.2,0.1,0.5,0.1,0.8,0.2c0.3,0.1,0.6,0.1,0.9,0.2
			c0.7,0.2,1.2,0.5,1.5,0.9c0.3,0.4,0.5,0.9,0.5,1.6c0,0.4-0.1,0.8-0.2,1.1c-0.2,0.4-0.4,0.7-0.7,0.9c-0.3,0.3-0.7,0.5-1.1,0.6
			C284.4,108.9,283.9,109,283.3,109z"/>
		<path class="st4" d="M299.2,108.7l4.2-12.4h2l4.2,12.4h-1.7l-1.1-3.5H302l-1.1,3.5H299.2z M306.3,103.9l-1.9-5.8l-1.9,5.8H306.3z"
			/>
		<path class="st4" d="M319,109c-0.8,0-1.5-0.1-2.2-0.4c-0.7-0.3-1.3-0.7-1.8-1.2c-0.5-0.5-0.9-1.2-1.1-2c-0.3-0.8-0.4-1.7-0.4-2.8
			c0-1,0.1-1.9,0.4-2.7c0.3-0.8,0.6-1.4,1.1-2c0.5-0.6,1.1-1,1.8-1.3c0.7-0.3,1.4-0.4,2.3-0.4c0.4,0,0.8,0,1.2,0.1
			c0.4,0.1,0.7,0.1,1,0.2c0.3,0.1,0.5,0.2,0.8,0.3c0.3,0.1,0.6,0.3,0.8,0.4v2h-0.1c-0.1-0.1-0.3-0.3-0.6-0.5s-0.5-0.4-0.8-0.6
			c-0.3-0.2-0.7-0.3-1-0.4c-0.4-0.1-0.8-0.2-1.3-0.2c-0.5,0-1,0.1-1.5,0.3c-0.5,0.2-0.9,0.5-1.2,1c-0.3,0.4-0.6,0.9-0.8,1.6
			c-0.2,0.6-0.3,1.4-0.3,2.1c0,0.8,0.1,1.6,0.3,2.2c0.2,0.6,0.5,1.1,0.8,1.5c0.3,0.4,0.7,0.7,1.2,0.9c0.5,0.2,1,0.3,1.5,0.3
			c0.5,0,0.9-0.1,1.3-0.2c0.4-0.1,0.8-0.3,1.1-0.4c0.3-0.2,0.6-0.3,0.8-0.5c0.2-0.2,0.4-0.3,0.5-0.5h0.1v2c-0.3,0.1-0.5,0.2-0.8,0.4
			c-0.2,0.1-0.5,0.2-0.9,0.3c-0.4,0.1-0.7,0.2-1,0.3C319.9,108.9,319.5,109,319,109z"/>
		<path class="st4" d="M332.6,109c-0.8,0-1.5-0.1-2.2-0.4c-0.7-0.3-1.3-0.7-1.8-1.2c-0.5-0.5-0.9-1.2-1.1-2
			c-0.3-0.8-0.4-1.7-0.4-2.8c0-1,0.1-1.9,0.4-2.7c0.3-0.8,0.6-1.4,1.1-2c0.5-0.6,1.1-1,1.8-1.3c0.7-0.3,1.4-0.4,2.3-0.4
			c0.4,0,0.8,0,1.2,0.1c0.4,0.1,0.7,0.1,1,0.2c0.3,0.1,0.5,0.2,0.8,0.3c0.3,0.1,0.6,0.3,0.8,0.4v2h-0.1c-0.1-0.1-0.3-0.3-0.6-0.5
			c-0.2-0.2-0.5-0.4-0.8-0.6c-0.3-0.2-0.7-0.3-1-0.4c-0.4-0.1-0.8-0.2-1.3-0.2c-0.5,0-1,0.1-1.5,0.3c-0.5,0.2-0.9,0.5-1.2,1
			c-0.3,0.4-0.6,0.9-0.8,1.6c-0.2,0.6-0.3,1.4-0.3,2.1c0,0.8,0.1,1.6,0.3,2.2c0.2,0.6,0.5,1.1,0.8,1.5c0.3,0.4,0.7,0.7,1.2,0.9
			c0.5,0.2,1,0.3,1.5,0.3c0.5,0,0.9-0.1,1.3-0.2c0.4-0.1,0.8-0.3,1.1-0.4c0.3-0.2,0.6-0.3,0.8-0.5c0.2-0.2,0.4-0.3,0.5-0.5h0.1v2
			c-0.3,0.1-0.5,0.2-0.8,0.4c-0.2,0.1-0.5,0.2-0.9,0.3c-0.4,0.1-0.7,0.2-1,0.3C333.5,108.9,333.1,109,332.6,109z"/>
		<path class="st4" d="M345.7,108.7h-4.8v-1.3h1.6v-9.8h-1.6v-1.3h4.8v1.3h-1.6v9.8h1.6V108.7z"/>
		<path class="st4" d="M359.8,97.8c0.5,0.5,0.8,1.2,1.1,2c0.3,0.8,0.4,1.7,0.4,2.7c0,1-0.1,1.9-0.4,2.7c-0.3,0.8-0.6,1.5-1.1,2
			c-0.5,0.6-1.1,1-1.8,1.3c-0.7,0.3-1.4,0.4-2.2,0.4c-0.8,0-1.6-0.1-2.3-0.4c-0.7-0.3-1.2-0.7-1.7-1.3c-0.5-0.5-0.8-1.2-1.1-2
			c-0.3-0.8-0.4-1.7-0.4-2.7c0-1,0.1-2,0.4-2.7c0.3-0.8,0.6-1.5,1.1-2c0.5-0.5,1-1,1.7-1.2c0.7-0.3,1.4-0.4,2.3-0.4
			c0.8,0,1.6,0.1,2.3,0.4C358.8,96.9,359.4,97.3,359.8,97.8z M359.6,102.6c0-0.8-0.1-1.5-0.3-2.2c-0.2-0.6-0.4-1.2-0.7-1.6
			c-0.3-0.4-0.7-0.7-1.2-1c-0.5-0.2-1-0.3-1.6-0.3c-0.6,0-1.1,0.1-1.6,0.3c-0.4,0.2-0.8,0.5-1.2,1c-0.3,0.4-0.6,0.9-0.8,1.6
			c-0.2,0.6-0.3,1.4-0.3,2.2c0,1.6,0.3,2.9,1,3.7c0.7,0.9,1.6,1.3,2.7,1.3s2.1-0.4,2.7-1.3C359.3,105.4,359.6,104.2,359.6,102.6z
			 M358.2,91.7l-2.3,3.1h-1.2l1.5-3.1H358.2z"/>
		<path class="st4" d="M375.3,108.7h-1.8L368,98.1v10.7h-1.5V96.4h2.3l5,9.8v-9.8h1.5V108.7z"/>
	</g>
	<path class="st3" d="M144.6,8.4c5.2,0,9.4,4.2,9.4,9.4c0,5.2-4.2,9.4-9.4,9.4c-5.2,0-9.4-4.2-9.4-9.4
		C135.2,12.7,139.4,8.4,144.6,8.4"/>
</g>
</svg>
