<?xml version="1.0" encoding="utf-8"?>
<!-- Generator: Adobe Illustrator 22.1.0, SVG Export Plug-In . SVG Version: 6.00 Build 0)  -->
<svg version="1.1" id="Layer_1" xmlns="http://www.w3.org/2000/svg" xmlns:xlink="http://www.w3.org/1999/xlink" x="0px" y="0px"
	 viewBox="0 0 600 200" style="enable-background:new 0 0 600 200;" xml:space="preserve">
<style type="text/css">
	.st0{fill:#FFFFFF;}
</style>
<g>
	<g>
		<path class="st0" d="M89.4,35.5L89.4,35.5L89.4,35.5c1.6-0.3,3.1-0.4,4.3-0.4c4,0,4.7,1.3,4.7,1.5c0,0,0.2,0.3,0.5,0.3
			c0.1,0,0.1,0,0.2,0c0.1,0,0.2-0.1,0.3-0.2c0.1-0.1,0.1-0.3,0-0.4c0,0-1-2.6-5.1-3.1c0,0-2.3-0.3-4.6,0.1c-0.6,0.1-0.8,1.6-0.8,1.6
			c0,0.2,0,0.3,0.1,0.4C89.1,35.5,89.4,35.5,89.4,35.5"/>
		<path class="st0" d="M82.5,37.2L82.5,37.2c-1-0.4-3.2-0.3-3.2-0.3c-3.5,0.1-4.5,2.3-4.5,2.3c-0.1,0.2-0.1,0.4,0,0.5
			c0.1,0.1,0.3,0.2,0.3,0.2c0.7,0.2,0.9-0.4,0.9-0.4c0,0,0.2-0.7,1.8-1.1c0,0,0.1,0,0.1,0c0,0,0,0.1,0,0.1c-0.1,0.2-0.1,0.4-0.1,0.7
			c0,1,0.8,1.8,1.8,1.8c1,0,1.8-0.8,1.8-1.8c0-0.2-0.1-0.5-0.1-0.7c0,0,0-0.1,0-0.1c0,0,0.1,0,0.1,0c0.6,0.2,1.1,0.7,1.4,1.2
			c0.1,0.2,0.3,0.3,1,0.3c0.2,0,0.4,0,0.5-0.1c0.1-0.1,0-0.2,0-0.2C83.7,37.8,82.6,37.2,82.5,37.2"/>
		<path class="st0" d="M89.3,40c0.7,0,0.9-0.1,1-0.3c0.3-0.6,0.8-1,1.4-1.3c0,0,0.1,0,0.1,0c0,0,0,0.1,0,0.1
			c-0.1,0.2-0.1,0.5-0.1,0.7c0,1,0.8,1.8,1.8,1.8c1,0,1.8-0.8,1.8-1.8c0-0.2,0-0.5-0.1-0.7c0,0,0-0.1,0-0.1c0,0,0.1,0,0.1,0
			c1.5,0.4,1.7,1,1.8,1.1c0,0.1,0.3,0.5,0.9,0.4c0.1,0,0.3-0.1,0.3-0.2c0.1-0.1,0.1-0.3,0-0.5c0,0-1-2.2-4.5-2.3
			c-0.2,0-2.3-0.1-3.2,0.3c0,0-1.2,0.6-1.6,2.4c0,0.1,0,0.2,0,0.2C88.9,40,89.1,40,89.3,40"/>
		<path class="st0" d="M73.7,36.9L73.7,36.9C73.7,36.9,73.7,36.9,73.7,36.9c0.1,0,0.2,0,0.2,0c0.4,0,0.6-0.3,0.6-0.3
			c0-0.1,1-2.4,9-1.1c0,0,0.3,0.1,0.5-0.1c0.1-0.1,0.1-0.2,0.1-0.4c0-0.1-0.2-1.5-0.9-1.6c-0.9-0.2-1.8-0.2-2.8-0.2
			c-1.1,0-1.8,0.1-1.8,0.1c-4.2,0.5-5.1,3-5.1,3.1c-0.1,0.2-0.1,0.4,0,0.5C73.5,36.8,73.7,36.9,73.7,36.9"/>
		<path class="st0" d="M141.3,123.9c0-0.3-0.1-0.6-0.3-0.8c-0.2-0.2-0.4-0.2-0.7-0.2c0.2-0.4,0.4-0.8,0.5-1.3c0.7-1.9,1-4,1.1-6.4
			c0-0.3-0.1-0.6-0.4-0.8c-0.2-0.1-0.4-0.2-0.7-0.1c0.1-0.4,0.3-0.8,0.4-1.3c0.5-1.9,0.6-4.1,0.4-6.5c0-0.3-0.2-0.6-0.5-0.7
			c-0.2-0.1-0.5-0.1-0.7-0.1c0.1-0.5,0.2-1,0.3-1.5c0.3-2,0.2-4.1-0.2-6.5c-0.1-0.3-0.3-0.5-0.5-0.7c-0.2-0.1-0.4-0.1-0.5,0
			c0.1-0.3,0.1-0.7,0.2-1.1c0.2-2,0-4.2-0.5-6.5c-0.1-0.3-0.3-0.5-0.6-0.6c-0.3-0.1-0.6-0.1-0.8,0.1c0,0,0,0-0.1,0.1
			c0-0.5,0.1-1.1,0-1.6c-0.1-2-0.5-4.1-1.4-6.3c-0.1-0.3-0.4-0.5-0.7-0.6c-0.3-0.1-0.5,0-0.8,0.2c0-0.5-0.1-1-0.1-1.5
			c-0.3-2-0.9-4-2-6.2c-0.1-0.3-0.4-0.5-0.7-0.5c-0.3,0-0.5,0.1-0.7,0.2c-0.1-0.5-0.2-0.9-0.3-1.4c-0.5-1.9-1.4-3.9-2.7-5.9
			c-0.2-0.2-0.5-0.4-0.8-0.4c-0.3,0-0.6,0.2-0.7,0.4c0,0,0,0,0,0c-0.2-0.5-0.4-1.1-0.6-1.6c-0.8-1.8-2-3.6-3.7-5.4
			c-0.2-0.2-0.5-0.3-0.9-0.3c-0.2,0.1-0.4,0.2-0.6,0.4c-0.3-0.5-0.5-1.1-0.9-1.6c-1.1-1.7-2.5-3.2-4.4-4.7c-0.2-0.2-0.6-0.2-0.9-0.1
			c-0.2,0.1-0.4,0.3-0.5,0.5c-1.1-1.6-2.7-2.7-4.7-3.5c0.3,0,0.5,0,0.7,0.1c2.6,0.2,4.5-0.4,4.6-0.4c0.6-0.2,1-0.8,0.9-1.5
			c-0.1-0.7-0.6-1.1-1.3-1.2c-2.8-0.1-3.9-0.7-5.2-1.4c-0.1-0.1-0.3-0.1-0.4-0.2l6.2-0.9c0.7-0.1,1.1-0.7,1.1-1.3
			c0-0.7-0.5-1.2-1.2-1.3l-5.9-0.9c0.7-0.2,1.3-0.4,1.9-0.6c2.5-0.9,4-2.1,4.1-2.1c0.5-0.4,0.6-1.1,0.3-1.7c-0.3-0.6-1-0.8-1.6-0.6
			c-2.6,1-3.8,0.8-5.3,0.7c-0.1,0-0.3,0-0.4,0l5.4-3.2c0.6-0.3,0.8-1.1,0.5-1.7c-0.3-0.6-0.9-1-1.6-0.8l-5.8,1.5
			c0.5-0.4,1-0.9,1.5-1.3c2-1.8,2.9-3.5,2.9-3.5c0.3-0.6,0.2-1.3-0.4-1.7c-0.5-0.4-1.2-0.4-1.7,0.1c-2.1,1.9-3.2,2.2-4.7,2.7
			c-0.1,0-0.3,0.1-0.4,0.1l3.7-5c0.4-0.5,0.3-1.3-0.1-1.8c-0.5-0.5-1.2-0.5-1.8-0.1l-4.8,3.6c0.3-0.6,0.6-1.2,0.9-1.8
			c1.1-2.4,1.3-4.3,1.3-4.4c0.1-0.7-0.4-1.3-1-1.4c-0.6-0.2-1.3,0.1-1.6,0.7c-1.2,2.6-2.1,3.3-3.3,4.3c-0.1,0.1-0.2,0.2-0.3,0.2
			l1.5-6.1c0.2-0.6-0.2-1.3-0.8-1.6c-0.6-0.3-1.3,0-1.7,0.6l-3.1,5.2c0.1-0.7,0.1-1.4,0.2-2c0.2-2.6-0.4-4.5-0.4-4.6
			c-0.2-0.6-0.8-1-1.5-0.9c-0.6,0.1-1.1,0.6-1.2,1.3c-0.1,2.8-0.7,3.9-1.4,5.2c-0.1,0.1-0.1,0.2-0.2,0.3l-0.9-6.2
			c-0.1-0.7-0.7-1.1-1.3-1.1c-0.7,0-1.2,0.5-1.3,1.2l-0.8,5.9c-0.2-0.6-0.4-1.3-0.6-1.8c-0.9-2.5-2.1-4-2.1-4.1
			c-0.4-0.5-1.1-0.6-1.7-0.3c-0.6,0.3-0.8,1-0.6,1.6c0.9,2.7,0.8,3.9,0.7,5.4c0,0.1,0,0.3,0,0.4l-3.2-5.4c-0.3-0.6-1.1-0.8-1.7-0.6
			c-0.6,0.3-0.9,0.9-0.8,1.6l1.5,5.8c-0.4-0.5-0.8-1-1.2-1.5c-1.7-1.9-3.3-2.8-3.5-2.9c-0.6-0.3-1.3-0.2-1.7,0.4
			c-0.4,0.5-0.4,1.3,0.1,1.7c1.9,2.1,2.2,3.2,2.7,4.7c0,0.1,0.1,0.3,0.1,0.4l-5-3.7c-0.5-0.4-1.3-0.3-1.8,0.1
			c-0.5,0.5-0.5,1.2-0.1,1.8l3.6,4.8c-0.6-0.3-1.2-0.6-1.8-0.9c-2.4-1.2-4.3-1.3-4.4-1.4c-0.6-0.1-1.2,0.4-1.4,1
			c-0.2,0.6,0.1,1.3,0.7,1.6c2.5,1.2,3.3,2.1,4.3,3.3c0.1,0.1,0.2,0.2,0.3,0.3l-6.1-1.5c-0.6-0.2-1.3,0.2-1.6,0.8
			c-0.3,0.6,0,1.3,0.6,1.7l5.2,3.1c-0.7-0.1-1.4-0.1-2-0.2C59.9,35.4,58.1,36,58,36c-0.6,0.2-1,0.8-0.9,1.5c0.1,0.7,0.6,1.1,1.3,1.2
			c2.8,0.1,3.9,0.7,5.2,1.4c0.1,0.1,0.2,0.1,0.3,0.2l-6.2,0.9c-0.7,0.1-1.1,0.7-1.1,1.3c0,0.7,0.5,1.2,1.1,1.3l6,0.9
			c-0.7,0.2-1.3,0.4-1.9,0.6c-2.5,0.9-4,2.1-4.1,2.2c-0.5,0.4-0.6,1.1-0.3,1.7c0.3,0.6,1,0.8,1.6,0.6c1.3-0.5,2.4-0.7,3.3-0.8
			c-1.7,1.5-2.5,2.3-2.8,2.8c-0.3,0.4-0.5,0.7-0.8,1.1c-0.1-0.2-0.3-0.4-0.5-0.4c-0.3-0.1-0.6-0.1-0.8,0.1c-1.9,1.5-3.4,3.1-4.5,4.7
			c-0.3,0.5-0.6,1-0.9,1.6c-0.1-0.2-0.4-0.4-0.6-0.5c-0.3-0.1-0.6,0.1-0.8,0.3c-1.6,1.7-2.9,3.5-3.7,5.4c-0.2,0.5-0.4,1-0.6,1.5
			c-0.2-0.2-0.4-0.3-0.6-0.3c-0.3,0-0.6,0.1-0.8,0.4c-1.4,1.9-2.4,3.9-3,5.8c-0.2,0.5-0.3,1.1-0.4,1.6c0,0,0,0,0,0
			c-0.2-0.2-0.5-0.4-0.8-0.3c-0.3,0-0.6,0.2-0.7,0.5c-1.1,2.1-1.8,4.2-2.1,6.1c-0.1,0.5-0.1,1-0.1,1.5h0c-0.2-0.2-0.5-0.3-0.8-0.2
			c-0.3,0.1-0.5,0.3-0.6,0.6c-0.8,2.2-1.3,4.4-1.3,6.4c0,0.5,0,1,0.1,1.5c-0.2-0.2-0.5-0.2-0.8-0.1c-0.3,0.1-0.5,0.3-0.6,0.6
			c-0.5,2.3-0.7,4.5-0.5,6.5c0,0.4,0.1,0.8,0.2,1.1c-0.2,0-0.3,0-0.4,0.1c-0.3,0.1-0.5,0.4-0.5,0.7c-0.4,2.3-0.5,4.5-0.2,6.5
			c0.1,0.5,0.2,1,0.3,1.5c-0.2,0-0.3,0-0.4,0.1c-0.3,0.1-0.5,0.4-0.5,0.7c-0.3,2.4-0.2,4.5,0.2,6.5c0.1,0.4,0.2,0.9,0.3,1.3
			c-0.2,0-0.5,0-0.6,0.1c-0.3,0.2-0.4,0.4-0.4,0.8c0,2.4,0.3,4.5,0.9,6.4c0.2,0.6,0.4,1.1,0.7,1.7c-0.1,0-0.2-0.1-0.2-0.1
			c-0.3-0.1-0.6,0-0.8,0.2c-0.2,0.2-0.3,0.5-0.3,0.8c0.4,2.3,1,4.4,2,6.2c0.2,0.4,0.4,0.7,0.6,1c-0.2,0-0.3,0.1-0.5,0.3
			c-0.2,0.2-0.3,0.5-0.2,0.8c0.5,2.3,1.4,4.3,2.4,6c0.3,0.4,0.6,0.8,0.9,1.2c-0.3,0-0.5,0.1-0.7,0.4c-0.2,0.2-0.2,0.6-0.1,0.9
			c0.8,2.2,1.9,4.2,3.1,5.7c0.3,0.4,0.6,0.7,0.9,1c-0.2,0.1-0.5,0.2-0.6,0.4c-0.2,0.3-0.2,0.6,0,0.9c1.1,2.1,2.3,3.9,3.8,5.3
			c0.3,0.3,0.7,0.6,1,0.9c-0.2,0.1-0.4,0.3-0.5,0.5c-0.1,0.3-0.1,0.6,0.1,0.9c1.3,2,2.7,3.6,4.3,4.9c0.5,0.4,1,0.7,1.5,1
			c-0.2,0-0.3,0.1-0.3,0.1c-0.3,0.1-0.5,0.3-0.6,0.6c-0.1,0.3,0,0.6,0.2,0.8c1.6,1.7,3.3,3.1,5,4c1.4,0.8,2.8,1.3,4.1,1.6
			c1.1,0.2,2.3,0.2,3.3,0.1c3,2.1,6.2,3.9,9.4,5.3c2.7,1.1,5.4,2,8.2,2.6c0.4,0.1,0.8,0.2,1.2,0.2l0.9,0.2c0.6,0.2,1.2,0.3,1.5,0.4
			c-0.1,0.3-0.1,0.6-0.1,0.9c0,0.3,0,0.6,0.1,1c-1,1-4.4,4-9.3,4.6l-0.3,0L73,185c0.2,0.3,0.6,0.9,1.4,1.6l0.1,0.1l0.1,0
			c4.4-0.8,7.5-3.2,9-4.6c0.1,0.1,0.2,0.2,0.4,0.4c-0.3,1.3-1.7,4.2-6.7,5.6l-0.5,0.2l0.5,0.2c0.9,0.4,1.9,0.7,3,0.8l0.1,0l0.1,0
			c3.8-1.7,5.1-4.4,5.6-5.8c0.5,0.1,1,0.1,1.5,0c0.5,1.5,1.8,4.1,5.6,5.8l0.1,0l0.1,0c1.1-0.2,2.1-0.4,3-0.8l0.5-0.2l-0.5-0.2
			c-5-1.4-6.3-4.3-6.7-5.6c0.1-0.1,0.3-0.2,0.4-0.4c1.5,1.4,4.6,3.7,8.9,4.6l0.1,0l0.1-0.1c0.7-0.7,1.2-1.3,1.3-1.6l0.2-0.3l-0.3,0
			c-4.7-0.6-8-3.4-9.3-4.6c0.1-0.3,0.1-0.7,0.1-1c0-0.3,0-0.6-0.1-0.9c0.5-0.1,1-0.2,1.4-0.4l1.1-0.2c1.3-0.2,2.6-0.5,3.8-0.8
			c2.7-0.7,5.5-1.8,8.1-3.1c3.7-1.8,6.2-3.7,6.9-4.2c1,0.2,2.1,0.2,3.3-0.1c1.4-0.3,2.7-0.8,4.1-1.6c1.7-1,3.4-2.3,5-4
			c0.2-0.2,0.3-0.5,0.2-0.8c-0.1-0.3-0.3-0.5-0.6-0.6c0,0-0.1,0-0.2-0.1c0.5-0.3,1.1-0.7,1.6-1.1c1.6-1.2,3-2.9,4.3-4.9
			c0.2-0.3,0.2-0.6,0.1-0.9c-0.1-0.2-0.3-0.4-0.5-0.5c0.3-0.3,0.7-0.6,1-0.9c1.4-1.4,2.7-3.2,3.8-5.3c0.1-0.3,0.1-0.6,0-0.9
			c-0.2-0.3-0.4-0.4-0.7-0.4c0.3-0.3,0.7-0.7,1-1.1c1.3-1.5,2.3-3.5,3.1-5.7c0.1-0.3,0.1-0.6-0.1-0.8c-0.2-0.2-0.4-0.4-0.7-0.4
			c0,0,0,0-0.1,0h0c0.3-0.4,0.6-0.7,0.8-1.1c1.1-1.7,2-3.7,2.5-6c0.1-0.3,0-0.6-0.2-0.8c-0.2-0.2-0.5-0.3-0.8-0.3
			c0.3-0.4,0.5-0.9,0.8-1.3C140.4,128.4,141,126.3,141.3,123.9 M140.2,116.5L140.2,116.5C140.3,116.5,140.3,116.5,140.2,116.5
			c-0.1,1.7-0.4,3.2-0.8,4.5c-0.5,1.3-1.1,2.5-2,3.5c-1,1.1-2,1.8-2.4,2c0,0,0,0,0,0c0,0-0.1,0-0.1,0c-1.3-1.8-1.9-4-1.9-6.5
			c0-0.8,0.1-1.6,0.3-2.4c0,0,0-0.1,0.1-0.1c0,0,0.1,0,0.1,0c1.1,1.4,1.8,3.3,1.8,3.3c0.1,0.3,0.3,0.4,0.6,0.5c0,0,0,0,0,0
			c0.3,0,0.5-0.2,0.6-0.4C137.6,118.6,139.1,117.2,140.2,116.5C140.2,116.5,140.2,116.5,140.2,116.5 M140,108
			C140,108,140.1,108,140,108c0.1,0,0.1,0,0.1,0.1c0,1.6-0.1,3.1-0.4,4.5c-0.3,1.4-0.9,2.6-1.6,3.6c-0.8,1.2-1.8,1.9-2.1,2.2
			c0,0,0,0-0.1,0c0,0,0,0-0.1,0c-2.3-2.6-2.5-6.5-2.4-8.6c0,0,0-0.1,0.1-0.1c0,0,0.1,0,0.1,0c1.2,1.3,2,3,2.1,3
			c0.1,0.2,0.4,0.4,0.6,0.4c0.3,0,0.5-0.2,0.6-0.4C137.7,110.4,139,108.9,140,108 M139.1,99.4L139.1,99.4
			C139.1,99.4,139.2,99.4,139.1,99.4c0.1,0,0.1,0,0.1,0.1c0.2,1.6,0.2,3.1,0,4.5c-0.2,1.4-0.6,2.7-1.2,3.8c-0.7,1.3-1.6,2.1-2,2.4
			c0,0,0,0-0.1,0c0,0,0,0-0.1,0c-2.3-1.9-3-6-3.2-8.3c0,0,0-0.1,0.1-0.1c0,0,0.1,0,0.1,0c1.3,1.2,2.3,2.7,2.3,2.7
			c0.1,0.2,0.4,0.3,0.7,0.3c0.3,0,0.5-0.2,0.5-0.5C137,102,138.2,100.4,139.1,99.4 M137.8,91.3L137.8,91.3
			C137.8,91.3,137.8,91.2,137.8,91.3c0.1,0,0.1,0,0.1,0c0.3,1.6,0.3,3.1,0.2,4.5c-0.1,1.4-0.5,2.7-1.1,3.8c-0.7,1.3-1.5,2.2-1.8,2.5
			c0,0,0,0-0.1,0c0,0,0,0-0.1,0c-1.9-1.6-2.8-4-3.2-5.7c-0.2-0.8-0.3-1.6-0.4-2.4c0,0,0-0.1,0-0.1c0,0,0.1,0,0.1,0
			c1.4,1.2,2.5,2.7,2.5,2.7c0.2,0.2,0.4,0.3,0.7,0.3c0.3-0.1,0.5-0.3,0.5-0.5C135.8,94,136.9,92.3,137.8,91.3 M93.7,135.7
			c0.1,0.3,0.3,0.5,0.5,0.6c2.8,1.4,5.1,4.2,6,5.4c0,0,0,0,0,0c-0.1,0.2-0.2,0.5-0.4,0.6c-0.5,0.5-1.1,0.8-2,0.8c0,0-0.1,0-0.1,0
			c0,0,0,0,0,0c-0.3-0.6-0.8-1.4-1.6-2.3c-1-1.1-3-2.6-3.1-2.6c-0.5-0.3-1.1-0.2-1.4,0.2c-0.3,0.5-0.2,1.1,0.2,1.4
			c0.5,0.4,2,1.5,2.7,2.3c0.8,1,1.2,1.6,1.3,1.8c0,0,0,0,0,0c-0.1,0.2-0.3,0.5-0.6,0.8c-0.5,0.5-1,0.6-1.7,0.5c0,0,0,0,0,0
			c-0.3-0.6-0.9-1.9-2.1-3.3c-0.4-0.4-1-0.5-1.4-0.1c-0.2,0.2-0.3,0.4-0.3,0.7c0,0.3,0.1,0.5,0.3,0.7c0.9,1,1.4,1.9,1.7,2.5
			c0,0,0,0,0,0c-0.2,0.2-0.5,0.3-0.7,0.4c-0.7,0.3-1.4,0.3-2.2,0.2c0,0,0,0,0,0c0,0,0,0,0,0c0.3-0.5,0.5-1,0.6-1.5
			c0.1-0.6-0.1-1.5-1-2.5c-0.5-0.5-1.5-1-2.8-0.7c0,0,0,0,0,0c0,0,0,0,0,0c-0.1-0.7-0.4-1.4-1.1-2c-1-0.9-2.2-1.1-3.5-0.7
			c0,0,0,0-0.1,0l0,0c0,0,0,0,0,0c-0.2-0.5-0.6-1.3-1.7-1.8c-1-0.5-2-0.5-3.1-0.2c0,0,0,0,0,0c-0.9-0.8-2.2-1-2.5-1
			c-1.5-0.2-3.5,0.5-4.8,1.8c0,0,0,0,0,0c-6.7,3.6-15.4,7.6-18.9,9.1c0,0,0,0,0,0s0,0,0,0c-1.9-3.5-3.4-7.3-4.7-11.2
			c-0.4-1.1-0.7-2.3-1-3.4c0,0,0,0,0,0c0,0,0,0,0,0c9.9-1.1,17.8-2.3,23.6-3.5c6-1.2,9.9-2.4,11.8-3.7l0,0c2.3-1.6,3.9-2.4,6.2-2.3
			c0.7,0.1,1.3,0.1,1.9,0.2c0,0,0,0,0,0c0,0,0,0,0,0c-0.6,0.2-1.1,0.5-1.6,0.8c-0.9,0.6-1.5,1.1-2,1.5c-0.5,0.4-0.9,0.7-1.6,1.2
			c-0.4,0.3-1,0.6-1.6,0.9c-1.3,0.7-2.4,1.2-2.7,2l0,0l0,0c-0.3,1-0.2,1.8,0.4,2.7c1,1.4,2.6,1.3,4,1.2c1.5-0.1,3.3-0.6,4.7-1.4
			c0.5-0.3,0.9-0.6,1.3-0.8c0.6-0.4,1.1-0.7,1.5-0.8c0,0,0,0,0.1,0c1.2-0.3,2.6-0.2,4.2,0.4c1.4,0.6,2.8,1.4,4.1,2.3
			c3.1,2,5.4,4.8,6.1,5.6c0,0,0,0,0,0c-0.1,0.3-0.2,0.9-0.6,1.2c-0.4,0.4-1,0.6-1.7,0.6c0,0,0,0,0,0c-0.9-1.3-3.5-4.4-6.7-6
			c-0.5-0.2-1.1,0-1.4,0.5C93.6,135.2,93.6,135.5,93.7,135.7 M86.1,146.2C86,146.2,86,146.2,86.1,146.2L86.1,146.2
			c-0.5,0.4-1.8,1.2-2.9,1.2c-0.1,0-0.2,0-0.4,0c-0.2,0-0.5-0.1-0.8-0.5c0,0,0,0,0,0c0.5-1.1,1.7-1.9,2.7-2.5c1.4-0.8,2-0.3,2.1-0.3
			c0.4,0.4,0.4,0.7,0.4,0.8C87.1,145.3,86.4,145.9,86.1,146.2L86.1,146.2L86.1,146.2z M74.4,140.4c1.4-1.4,2.6-1.8,3.5-1.3
			c0.3,0.1,0.6,0.4,0.7,0.7c0,0.1,0,0.2,0,0.3c0,0,0,0,0,0c-0.2,0.2-0.4,0.3-0.7,0.5c-1.5,1.1-2.4,2.2-2.7,3.3c0,0,0,0,0,0h0
			c-0.2,0-0.5-0.1-0.7-0.2c-1.2-0.4-1.3-1.1-1.3-1.3C73.1,141.9,73.4,141.3,74.4,140.4 M73,139c-0.7,0.7-1.4,1.5-1.7,2.6
			c0,0,0,0,0,0h0c-0.2,0-0.4,0-0.6-0.1c-0.7-0.1-1.2-0.4-1.4-0.6c-0.1-0.1-0.2-0.5,0.3-1.2c0.7-1,2.4-1.7,3.4-1.6c0,0,0.1,0,0.1,0
			c0.1,0,0.4,0.1,0.6,0.1c0,0,0,0,0,0c0,0,0,0,0,0C73.4,138.5,73.2,138.7,73,139 M79.1,142.3c1.9-1.3,2.8-1.8,3.8-0.9
			c0.3,0.2,0.4,0.5,0.4,0.7c0,0.4-0.4,0.9-0.8,1.2c-1.2,0.8-2,1.7-2.4,2.8c0,0,0,0,0,0c-0.3,0-0.7,0.1-1.1,0.1c-0.5,0-1-0.1-1.4-0.3
			c-0.2-0.1-0.4-0.3-0.4-0.8C77,144,78.3,142.9,79.1,142.3 M99.7,52.4C99.7,52.4,99.6,52.3,99.7,52.4c0-0.1,0-0.1,0-0.1
			c0.9-0.3,1.7-0.4,2.6-0.5c2.4-0.1,4.4,0.6,6,2.3c0,0,0,0.1,0,0.1c0,0,0,0-0.1,0.1c-0.5,0.2-1.3,0.4-2.3,0.4c-0.1,0-0.2,0-0.3,0
			C103.6,54.6,101.6,53.9,99.7,52.4 M102.5,55.8H70.5c5.1-2.6,10.5-3.9,16-3.9C92,51.9,97.4,53.2,102.5,55.8 M106.5,49.3
			c-0.7,0.3-1.8,0.7-3.1,0.9c-0.8,0.2-1.6,0.2-2.3,0.2c-1.7,0-3.2-0.4-4.4-1.3c0,0,0,0,0-0.1c0,0,0-0.1,0-0.1c0.5-0.3,1.5-0.8,2.6-1
			c1.2-0.3,2.5-0.3,3.7-0.1c1.2,0.2,2.3,0.6,3.5,1.3C106.6,49.1,106.6,49.2,106.5,49.3C106.6,49.2,106.6,49.2,106.5,49.3 M98.9,46.6
			c-0.8,0.4-2.2,0.9-4.3,1.1c-0.3,0-0.5,0.2-0.6,0.5c-0.1,0.3,0,0.6,0.3,0.7c0,0,1.6,1.1,2.8,2.6c0,0,0,0.1,0,0.1c0,0,0,0-0.1,0
			c-2-0.1-5.6-0.6-8.3-3.8c0,0,0-0.1,0-0.1c0.4-0.4,1.1-1,2.3-1.4c2.1-0.8,4.8-0.8,7.8,0C98.9,46.4,98.9,46.4,98.9,46.6
			C98.9,46.5,98.9,46.5,98.9,46.6 M90.1,45.1c-0.7,0.5-2,1.3-4,2c-0.3,0.1-0.5,0.3-0.5,0.6c0,0.3,0.2,0.5,0.4,0.6
			c0,0,1.8,0.7,3.2,1.9c0,0,0,0.1,0,0.1c0,0,0,0.1-0.1,0.1c-0.6,0.1-1.2,0.1-1.7,0.1c-2,0-4.8-0.3-7-2c0,0,0-0.1,0-0.1
			c0.3-0.5,0.9-1.2,1.9-1.8c1.9-1.2,4.6-1.7,7.7-1.5C90.1,45,90.1,45,90.1,45.1C90.2,45.1,90.1,45.1,90.1,45.1 M81.1,45.3
			C80.6,46,79.6,47,77.5,48c-0.3,0.1-0.4,0.4-0.4,0.7c0,0.3,0.3,0.5,0.5,0.6c0,0,1.8,0.3,3.5,1.2c0,0,0.1,0.1,0.1,0.1
			c0,0,0,0.1-0.1,0.1c-0.8,0.3-1.6,0.5-2.3,0.6c-0.8,0.1-1.6,0.2-2.4,0.2c-1.6,0-3-0.3-4.2-0.9c0,0-0.1-0.1,0-0.1
			c0.2-0.5,0.6-1.3,1.5-2.2c1.6-1.6,4.2-2.7,7.4-3.2C81.1,45.1,81.1,45.1,81.1,45.3C81.1,45.2,81.1,45.2,81.1,45.3 M72.7,46.7
			L72.7,46.7c-0.4,1-1.3,2.4-3.2,4.1c-0.2,0.2-0.3,0.5-0.2,0.7c0.1,0.3,0.3,0.4,0.6,0.4h0c0.1,0,0.9,0,1.8,0.1
			c0.7,0.1,1.3,0.2,1.9,0.4c0,0,0.1,0,0.1,0.1c0,0,0,0.1,0,0.1c-0.7,0.4-1.5,0.7-2.2,1c-1.5,0.5-2.9,0.8-4.2,0.8
			c-0.9,0-1.7-0.1-2.5-0.3c0,0-0.1-0.1-0.1-0.1c0.3-1.5,1.7-5.2,8-7.3C72.6,46.6,72.7,46.6,72.7,46.7C72.7,46.7,72.7,46.7,72.7,46.7
			 M106.3,58c1.7,1.1,3.4,2.4,5,3.8H61.7c1.6-1.4,3.3-2.7,5-3.8H106.3z M113.6,63.9c1.2,1.2,2.3,2.4,3.4,3.8H92.9
			c-3.2-2.3-6.7-2.2-7.2-2.2c-0.5,0-3.7,0.1-6.7,2.2H56c1.1-1.3,2.3-2.6,3.4-3.8H113.6z M78.6,92c-2-0.2-3.8,0.4-5.9,1.3
			c0,0,0,0,0,0c0,0,0,0,0,0c0-0.2,0.1-0.4,0.1-0.6c1.1-5.6,3.3-9.5,5-11.7c1.2-1.7,2.4-2.7,2.9-3.2c0.2-0.1,0.3-0.3,0.5-0.4
			c0.5-0.4,0.5-1.1,0.2-1.6c-0.4-0.5-1.1-0.6-1.6-0.2c0,0-0.2,0.2-0.6,0.4c-0.9,0.6-1.8,0.8-2.3,0.5c-0.5-0.3-0.7-0.9-0.5-1.6
			c0.2-1.3,1.6-2.9,2.1-3.4c0,0,0,0,0.1-0.1c2.8-3.3,7.2-3.4,7.3-3.4c0,0,1.5-0.1,3.3,0.5c2.4,0.8,4.2,2.4,5.5,4.9
			c1.8,3.5,3.1,6.9,4.1,10.7c0,0,0,0,0,0c0,0,0,0,0,0c-2.5-0.9-4.6-2.5-4.7-2.6c-0.5-0.4-1.2-0.3-1.7,0.2c-0.4,0.5-0.3,1.2,0.2,1.7
			c0.1,0.1,3.2,2.6,6.8,3.4c0,0,0,0,0,0c0.3,1.3,0.5,2.7,0.8,4.4c0,0,0,0,0,0c0,0,0,0,0,0c-1.2-0.7-2.7-1-3.9-1.4
			c-0.8-0.2-1.5-0.4-2.1-0.6c-2.5-1-4.7-2.7-4.7-2.7c-0.5-0.4-1.2-0.3-1.7,0.2c-0.4,0.5-0.3,1.3,0.2,1.7c0.1,0.1,2.4,1.9,5.3,3.1
			c0.7,0.3,1.5,0.5,2.4,0.7c3.2,0.9,4.7,1.6,4.8,3.2v0c0,0.3-0.2,0.5-0.4,0.7c-0.9,1-2.8,1.2-3.8,1.2c-0.1,0-3.4,0-3.4,0
			c-0.6,0-3.7-0.1-6.3-1.9C83.2,93.2,80.8,92.2,78.6,92 M84.8,97.1C84.8,97.1,84.8,97.1,84.8,97.1l-9.5,0c-1,0-1.7-0.2-2.1-0.8
			c-0.1-0.1-0.2-0.3-0.3-0.5c0,0,0,0,0-0.1C77.2,93.8,79.2,93.5,84.8,97.1C84.8,97.1,84.8,97.1,84.8,97.1 M88,105.6h43.6
			c0.1,1.4,0.2,2.7,0.2,4.1H88V105.6z M88,103.4v-3.8h42.9c0.2,1.3,0.4,2.5,0.5,3.8H88z M101.6,97.5c0.4-0.5,0.8-1,1-1.7
			c0-0.1,0-0.1,0.1-0.2c0.2-0.6,0.2-1.2,0.2-1.9h26.9c0.3,1.3,0.6,2.5,0.8,3.8H101.6z M102.5,91.5c-0.2-1.2-0.4-2.5-0.6-3.8h26.1
			c0.1,0.3,0.2,0.6,0.3,1c0.3,0.9,0.6,1.9,0.8,2.8H102.5z M101.4,85.6c-0.3-1.2-0.6-2.5-1-3.8h25.2c0.5,1.2,1.1,2.5,1.5,3.8H101.4z
			 M99.8,79.6c-0.4-1.2-0.9-2.5-1.4-3.8h24.3c0.7,1.2,1.4,2.5,2,3.8H99.8z M97.4,73.7c-0.2-0.5-0.5-1-0.7-1.5
			c-0.4-0.9-0.9-1.6-1.5-2.3h23.6c0.9,1.2,1.8,2.5,2.6,3.8H97.4z M76.6,69.9c-0.5,0.5-1.9,2.1-2.4,3.8H51.7c0.8-1.3,1.7-2.6,2.6-3.8
			H76.6z M74,75.8c0.2,1.1,0.8,2.1,1.7,2.6c0.2,0.1,0.4,0.2,0.7,0.3c0,0,0,0,0,0c0,0,0,0,0,0c-0.2,0.2-0.4,0.5-0.6,0.8H48.4
			c0.6-1.3,1.3-2.6,2-3.8H74z M74.4,81.8c-0.7,1.1-1.3,2.4-1.9,3.8H45.9c0.5-1.3,1-2.6,1.5-3.8H74.4z M71.6,87.7
			c-0.4,1.2-0.8,2.4-1,3.8H44c0.3-1,0.5-1.9,0.8-2.8c0.1-0.3,0.2-0.6,0.3-1H71.6z M70.2,93.7c0,0.5,0,1.1,0,1.6c0,0.1,0,0.1,0,0.2
			c0.1,0.8,0.4,1.5,0.8,2H42.6c0.2-1.3,0.5-2.5,0.8-3.8H70.2z M85.1,99.6v3.8H41.7c0.1-1.3,0.3-2.6,0.5-3.8H85.1z M85.1,105.6v4.1
			H41.2c0-1.4,0.1-2.7,0.2-4.1H85.1z M85.1,111.9v8.8c0,0,0,0,0,0c0,0,0,0,0,0c-0.1,0-0.2,0-0.3,0c-2.4,0-4.4,1-6.7,2.6
			c-3.5,2.3-15.2,4.7-34.8,6.9c0,0,0,0,0,0c-1.4-5.8-2.1-11.9-2.1-18.1c0-0.1,0-0.2,0-0.3H85.1z M99.2,131.4c-2.1-1.4-6.1-4-9.9-3
			c-0.8,0.2-1.4,0.6-2.2,1.1c-0.4,0.2-0.8,0.5-1.2,0.8c-1.2,0.7-2.8,1.1-3.8,1.1c-1.2,0.1-1.9,0.1-2.2-0.4c-0.3-0.4-0.3-0.6-0.2-0.8
			c0,0,0,0,0,0c0.2-0.2,1.2-0.7,1.7-1c0.6-0.3,1.3-0.6,1.8-1c0.7-0.5,1.2-0.9,1.7-1.3c0.5-0.4,1-0.8,1.9-1.4
			c1.2-0.9,2.5-0.9,4.5-0.9c0.3,0,0.6,0,0.9,0c0.2,0,0.5,0,0.7,0c2.1-0.1,4,0.6,6.8,1.6c0.8,0.3,1.8,0.6,2.8,1c0,0,0,0,0,0
			c0,0,3.8,1.2,9.1,2.5c4.5,1.1,11.2,2.4,17.4,2.9c0,0,0,0,0,0c0,0,0,0,0,0c-0.3,1.1-0.6,2.1-0.9,3.1c-1.3,4.1-3,8-4.9,11.6
			c0,0,0,0,0,0h0c-3-1.3-10.7-4.6-15.7-8.3c-1-0.7-1.7-1.5-2.1-1.8l0,0c0,0,0,0,0,0l0,0c-0.1-0.1-0.2-0.2-0.2-0.2
			C104.3,135.7,102.1,133.3,99.2,131.4 M103.2,125.3c-1-0.3-1.9-0.7-2.7-1c-3-1.1-5.1-1.8-7.6-1.7c-0.1,0-0.3,0-0.4,0h0
			c-1.4-0.7-2.6-1.2-4.5-1.5c0,0,0,0,0,0v-9.1h43.9c0,0.1,0,0.2,0,0.3c0,6.3-0.7,12.4-2.1,18.3c0,0,0,0,0,0
			C117.8,129.9,103.8,125.5,103.2,125.3 M135.2,83C135.2,83,135.2,83,135.2,83c0.1,0,0.1,0,0.2,0c0.5,1.6,0.8,3,0.8,4.5
			c0,1.4-0.1,2.7-0.5,3.9c-0.5,1.4-1.2,2.4-1.5,2.7c0,0,0,0-0.1,0c0,0,0,0,0,0c-1.8-1.1-3.1-2.9-4.1-5.3c-0.3-0.7-0.5-1.5-0.7-2.3
			c0,0,0-0.1,0-0.1c0,0,0.1,0,0.1,0c1.6,1,2.9,2.3,2.9,2.4c0.2,0.2,0.5,0.3,0.7,0.2c0.3-0.1,0.4-0.3,0.4-0.6
			C133.6,85.9,134.5,84.1,135.2,83 M130.3,81.3c0.2-0.1,0.4-0.4,0.4-0.6c-0.1-2.5,0.6-4.4,1.2-5.6c0-0.1,0.1-0.1,0.1-0.1
			c0,0,0.1,0,0.1,0.1c0.7,1.5,1.1,3,1.3,4.3c0.2,1.4,0.2,2.7-0.1,4c-0.3,1.5-0.9,2.5-1.2,2.8c0,0,0,0-0.1,0c0,0,0,0,0,0
			c-1.9-0.9-3.4-2.6-4.6-4.8c-0.4-0.7-0.7-1.4-0.9-2.2c0,0,0-0.1,0-0.1c0,0,0.1,0,0.1,0c1.7,0.8,3.1,2,3.1,2.1
			C129.7,81.3,130,81.4,130.3,81.3L130.3,81.3 M126.7,74c0.2-0.1,0.4-0.4,0.3-0.7c-0.4-2.5,0.1-4.4,0.5-5.6c0,0,0-0.1,0.1-0.1h0
			c0,0,0.1,0,0.1,0c0.8,1.4,1.4,2.8,1.8,4.2c0.4,1.4,0.5,2.7,0.3,4c-0.2,1.5-0.6,2.5-0.8,2.9c0,0,0,0-0.1,0h0
			c-2.1-0.7-3.9-2.2-5.3-4.3c-0.4-0.7-0.8-1.4-1.2-2.2c0,0,0-0.1,0-0.1c0,0,0.1,0,0.1,0c1.8,0.5,3.4,1.8,3.4,1.8
			C126.2,74.1,126.5,74.1,126.7,74 M121.5,67.2c0.2,0.2,0.5,0.2,0.8,0c0.2-0.2,0.3-0.5,0.2-0.7c-0.7-2.2-0.6-4.3-0.4-5.6
			c0,0,0-0.1,0.1-0.1c0,0,0.1,0,0.1,0c1,1.2,1.8,2.5,2.4,3.8c0.6,1.3,0.9,2.6,1,3.9c0.1,1.4-0.2,2.5-0.3,3c0,0,0,0.1-0.1,0.1h0
			c-2.1-0.4-4-1.5-5.8-3.4c-0.6-0.6-1.1-1.3-1.6-2c0,0,0-0.1,0-0.1c0,0,0,0,0.1,0C119.9,66.1,121.5,67.2,121.5,67.2 M116.3,61.2
			c0.3,0.1,0.6,0,0.7-0.2c0.2-0.2,0.2-0.5,0.1-0.8c-1.1-2.2-1.3-4.2-1.3-5.5c0,0,0-0.1,0.1-0.1c0,0,0.1,0,0.1,0
			c1.2,1.1,2.2,2.2,2.9,3.3c0.8,1.2,1.3,2.4,1.6,3.7c0.3,1.5,0.3,2.7,0.2,3.1c0,0,0,0.1-0.1,0.1h-0.1c-2.4,0-4.5-1.3-5.9-2.4
			c-0.7-0.5-1.4-1.2-2-1.8c0,0,0-0.1,0-0.1c0,0,0-0.1,0.1-0.1C114.4,60.5,116.3,61.2,116.3,61.2 M114.2,55.7
			c0.6,1.4,0.6,2.8,0.6,3.5c0,0,0,0.1-0.1,0.1c-0.1,0-0.3,0-0.4,0c-2.9,0-6.3-2-8-3.1c0,0,0-0.1,0-0.1c0,0,0-0.1,0.1-0.1
			c1.8-0.3,3.5,0,3.6,0.1c0.3,0.1,0.6-0.1,0.7-0.3c0.2-0.2,0.1-0.5,0-0.8c-1.1-1.4-1.8-3.1-2.2-4.2c0,0,0-0.1,0-0.1c0,0,0.1,0,0.1,0
			C111.4,51.6,113.3,53.3,114.2,55.7 M60.5,47.7C60.4,47.7,60.4,47.7,60.5,47.7C60.4,47.6,60.4,47.6,60.5,47.7
			c0.6-0.4,1.2-0.6,1.8-0.9c1.7-0.6,3.3-1,4.1-1.2c1.8-0.4,3.1-1.2,3.2-1.3c0.1-0.1,0.1-0.2,0.1-0.3c0-0.1-0.1-0.2-0.2-0.2l-9.7-1.4
			c0,0,0,0,0,0c0,0,0,0,0,0l9.7-1.4c0.1,0,0.2-0.1,0.2-0.2c0-0.1-0.1-0.2-0.2-0.2c0,0-1.8-0.3-3.7-1.1c-0.6-0.3-1-0.5-1.5-0.8
			c-1.1-0.6-2.1-1.1-3.8-1.4c0,0,0,0,0,0s0,0,0,0c0.7-0.1,1.3-0.1,2,0c1.8,0.1,3.5,0.4,4.3,0.5c1.8,0.3,3.3,0.1,3.4,0.1
			c0.1,0,0.2-0.1,0.2-0.2c0-0.1,0-0.2-0.1-0.3l-8.4-5c0,0,0,0,0,0c0,0,0,0,0,0l9.5,2.4c0.1,0,0.2,0,0.3-0.1c0.1-0.1,0-0.2-0.1-0.3
			c0,0-1.6-1-3-2.5c-0.4-0.4-0.8-0.9-1.1-1.3c-0.8-1-1.5-1.8-3-2.8c0,0,0,0,0-0.1c0,0,0,0,0,0c0.6,0.2,1.2,0.5,1.8,0.7
			c1.6,0.8,3.1,1.7,3.8,2.1c1.6,1,3.1,1.4,3.1,1.4c0.1,0,0.2,0,0.3-0.1c0.1-0.1,0.1-0.2,0-0.3l-5.8-7.8c0,0,0,0,0-0.1c0,0,0,0,0.1,0
			l7.8,5.8c0.1,0.1,0.2,0.1,0.3,0c0.1-0.1,0.1-0.2,0-0.3c0,0-1.1-1.5-1.8-3.5c-0.2-0.6-0.4-1.1-0.5-1.6c-0.4-1.2-0.7-2.3-1.7-3.7
			c0,0,0,0,0,0c0,0,0,0,0,0c0.5,0.4,1,0.9,1.4,1.4c1.2,1.4,2.2,2.7,2.7,3.4c1.1,1.5,2.3,2.4,2.4,2.5c0.1,0.1,0.2,0.1,0.3,0
			c0.1-0.1,0.1-0.2,0.1-0.3l-2.4-9.5c0,0,0,0,0,0c0,0,0,0,0.1,0l5,8.4c0.1,0.1,0.2,0.1,0.3,0.1c0.1,0,0.2-0.2,0.1-0.3
			c0-0.1-0.4-1.8-0.4-3.9c0-0.6,0.1-1.1,0.1-1.6c0.1-1.3,0.2-2.3-0.2-4.1c0,0,0,0,0,0c0,0,0,0,0,0c0.3,0.6,0.6,1.2,0.8,1.8
			c0.6,1.7,1,3.3,1.2,4.2c0.4,1.8,1.2,3,1.2,3.2c0.1,0.1,0.2,0.1,0.3,0.1c0.1,0,0.2-0.1,0.2-0.2l1.4-9.6c0,0,0,0,0,0
			c0,0,0.1,0,0.1,0l1.4,9.6c0,0.1,0.1,0.2,0.2,0.2s0.2-0.1,0.2-0.2c0-0.1,0.3-1.9,1.1-3.8c0.2-0.5,0.5-1,0.7-1.5
			c0.6-1.1,1.1-2.1,1.4-3.8c0,0,0,0,0,0c0,0,0,0,0,0c0.1,0.7,0.1,1.3,0,2c-0.1,1.8-0.4,3.5-0.5,4.3C91,24.5,91.2,26,91.3,26
			c0,0.1,0.1,0.2,0.2,0.2c0.1,0,0.2,0,0.3-0.1l5-8.4c0,0,0,0,0.1,0c0,0,0,0,0,0l-2.4,9.5c0,0.1,0,0.2,0.1,0.3c0.1,0,0.2,0,0.3-0.1
			c0,0,1-1.6,2.5-3c0.4-0.4,0.9-0.8,1.3-1.1c1-0.8,1.8-1.5,2.8-3c0,0,0,0,0,0c0,0,0,0,0,0c-0.2,0.6-0.4,1.2-0.7,1.8
			c-0.8,1.6-1.7,3.1-2.1,3.8c-1,1.6-1.3,3.1-1.4,3.1c0,0.1,0,0.2,0.1,0.3c0.1,0.1,0.2,0.1,0.3,0l7.8-5.9c0,0,0,0,0,0c0,0,0,0,0,0.1
			l-5.8,7.9c-0.1,0.1-0.1,0.2,0,0.3c0.1,0.1,0.2,0.1,0.3,0c0,0,1.5-1.1,3.4-1.8c0.6-0.2,1.1-0.4,1.6-0.5c1.2-0.4,2.2-0.7,3.7-1.7
			c0,0,0,0,0,0c0,0,0,0,0,0.1c-0.4,0.5-0.9,1-1.4,1.4c-1.3,1.2-2.7,2.2-3.4,2.7c-1.5,1.1-2.4,2.3-2.5,2.4c-0.1,0.1-0.1,0.2,0,0.3
			c0.1,0.1,0.2,0.1,0.3,0.1l9.4-2.4c0,0,0,0,0,0c0,0,0,0,0,0l-8.4,5c-0.1,0.1-0.1,0.2-0.1,0.3c0,0.1,0.2,0.2,0.3,0.2
			c0.1,0,1.8-0.4,3.9-0.4c0.6,0,1.1,0.1,1.6,0.1c1.3,0.1,2.3,0.3,4-0.1c0,0,0,0,0,0c0,0,0,0,0,0c-0.6,0.3-1.2,0.6-1.8,0.8
			c-1.7,0.6-3.3,1-4.1,1.2c-1.8,0.4-3.1,1.2-3.2,1.2c-0.1,0.1-0.1,0.2-0.1,0.3c0,0.1,0.1,0.2,0.2,0.2l9.6,1.4c0,0,0,0,0,0
			c0,0,0,0,0,0l-9.7,1.5c-0.1,0-0.2,0.1-0.2,0.2c0,0.1,0.1,0.2,0.2,0.2c0,0,1.8,0.3,3.7,1.1c0.5,0.3,1,0.5,1.5,0.8
			c1.1,0.6,2.1,1.1,3.8,1.4c0,0,0,0,0,0c0,0,0,0,0,0c-0.4,0-0.8,0-1.2,0c-0.3,0-0.6,0-0.8,0c-1.8-0.1-3.5-0.4-4.3-0.5
			c-0.1,0-0.2,0-0.2,0h0c-1.5-0.7-3.1-1-4.6-1h-0.1c0,0,0,0,0,0c0,0,0,0,0,0c0-0.1,0-0.1,0-0.2c-0.1-0.2-0.2-0.4-0.5-0.5
			c-1.8-0.6-3.5-1-5.1-1.1c-0.1,0-0.2,0-0.2,0h0c0,0-0.1,0-0.1,0c-0.1,0-0.2,0-0.3,0l-0.1,0c0,0,0,0-0.1,0c-0.1,0-0.2,0-0.4,0h-0.1
			c-0.7,0-1.4,0.1-2.1,0.2c0,0,0,0,0,0c0,0,0,0,0,0v0c0-0.1,0-0.2-0.1-0.3c0,0,0,0,0-0.1c-0.1-0.2-0.3-0.4-0.5-0.4
			c-0.2,0-0.3,0-0.5-0.1c0,0-0.1,0-0.1,0h-0.1c-0.1,0-0.2,0-0.3,0c-0.1,0-0.1,0-0.2,0c-0.1,0-0.2,0-0.3,0c-1.8-0.1-3.5-0.1-5,0.2
			c-0.4,0.1-0.8,0.2-1.2,0.3l-0.1,0c-0.1,0-0.1,0-0.2,0.1l-0.1,0c-0.1,0-0.2,0.1-0.3,0.1c-0.2,0.1-0.4,0.1-0.6,0.2c0,0,0,0,0,0
			c0,0,0,0,0,0v0v0c0,0,0-0.1,0-0.1v0c0-0.2,0-0.4-0.2-0.6v0c0,0,0,0-0.1-0.1l0,0c-0.1-0.1-0.3-0.2-0.5-0.2
			c-2.4,0.2-4.4,0.7-6.2,1.4c-0.6,0.3-1.1,0.5-1.6,0.9c0,0,0,0,0,0c0,0,0,0,0,0c0-0.1,0-0.2,0-0.2c0,0,0,0,0,0
			c0-0.2-0.1-0.5-0.3-0.6c0,0,0,0-0.1,0l0,0c0,0,0,0-0.1,0l0,0c-0.2-0.1-0.3-0.1-0.5,0c-2.3,0.6-4.3,1.5-5.9,2.6c0,0-0.1,0-0.1,0.1
			l0,0c0,0,0,0,0,0c-0.5,0-0.9,0-1.4,0c-0.4,0-1.6-0.1-1.6-0.1C63.3,47.4,62.2,47.3,60.5,47.7 M64.1,49.6L64.1,49.6
			C64.2,49.6,64.2,49.6,64.1,49.6c0.1,0,0.1,0,0.1,0.1c-0.1,1.3-0.5,3.2-1.8,5.4c-0.1,0.2-0.1,0.5,0,0.7c0.2,0.2,0.4,0.3,0.7,0.3
			c0,0,1.8-0.4,3.6-0.2c0,0,0.1,0,0.1,0.1c0,0,0,0.1,0,0.1c-1.5,1.2-4.6,3.3-7.9,3.3c-0.1,0-0.2,0-0.4,0c0,0-0.1,0-0.1-0.1
			C58.4,57.6,58.7,53.5,64.1,49.6 M52.7,61.8c0.3-1.2,0.8-2.5,1.6-3.7c0.8-1.2,1.8-2.3,3-3.4c0,0,0.1,0,0.1,0c0,0,0.1,0,0.1,0.1
			c0,1.3-0.1,3.3-1.3,5.5c-0.1,0.2-0.1,0.5,0.1,0.7s0.5,0.3,0.7,0.2c0,0,1.7-0.6,3.5-0.6c0,0,0.1,0,0.1,0.1c0,0,0,0.1,0,0.1
			c-0.7,0.7-1.4,1.3-2.1,1.8c-1.4,1.1-3.5,2.4-5.6,2.4c-0.1,0-0.2,0-0.2,0c0,0-0.1,0-0.1-0.1C52.5,64.4,52.4,63.3,52.7,61.8
			 M50.9,60.8L50.9,60.8C50.9,60.7,50.9,60.7,50.9,60.8c0.1,0,0.1,0,0.1,0c0.3,1.3,0.4,3.3-0.4,5.7c-0.1,0.3,0,0.6,0.2,0.7
			c0.2,0.2,0.5,0.2,0.8,0c0,0,1.6-1.1,3.5-1.2c0,0,0.1,0,0.1,0c0,0,0,0.1,0,0.1c-1.3,1.8-3.9,4.9-7.3,5.4h0c0,0-0.1,0-0.1-0.1
			C47.3,70,46.6,65.9,50.9,60.8 M43.6,71.8c0.4-1.3,1.1-2.7,2-4.1c0,0,0.1,0,0.1,0c0,0,0.1,0,0.1,0.1c0.4,1.2,0.8,3.2,0.3,5.7
			c-0.1,0.3,0.1,0.6,0.3,0.7c0.3,0.1,0.6,0.1,0.8-0.1c0,0,1.5-1.4,3.4-1.7c0,0,0.1,0,0.1,0c0,0,0,0.1,0,0.1
			c-0.3,0.6-0.7,1.4-1.4,2.3c-1.5,2.1-3.3,3.4-5.3,4h0c0,0-0.1,0-0.1,0c-0.2-0.4-0.6-1.5-0.7-3C43,74.5,43.1,73.1,43.6,71.8
			 M39.6,79.4c0.2-1.4,0.6-2.8,1.3-4.3c0,0,0-0.1,0.1-0.1c0,0,0.1,0,0.1,0c0.6,1.2,1.2,3.1,1.1,5.6c0,0.3,0.1,0.5,0.4,0.6
			c0.2,0.1,0.5,0.1,0.7-0.1c0.1-0.1,1.6-1.3,3.3-2.1c0,0,0.1,0,0.1,0c0,0,0,0.1,0,0.1c-0.2,0.7-0.4,1.4-0.8,2.1
			c-1.1,2.2-2.8,3.9-5,5c0,0,0,0,0,0c0,0-0.1,0-0.1,0c-0.3-0.4-0.8-1.4-1.1-2.8C39.4,82.1,39.4,80.8,39.6,79.4 M37.5,83
			C37.5,82.9,37.5,82.9,37.5,83c0.1-0.1,0.1-0.1,0.2,0c0.7,1.1,1.6,2.9,1.8,5.4c0,0.3,0.2,0.5,0.5,0.6c0.3,0.1,0.5,0,0.7-0.2
			c0,0,1.3-1.5,3-2.5c0,0,0.1,0,0.1,0c0,0,0,0,0,0.1c-0.1,0.7-0.2,1.5-0.5,2.2c-0.8,2.4-2.2,4.2-4.4,5.6c0,0,0,0,0,0
			c0,0-0.1,0-0.1,0c-0.3-0.3-1-1.3-1.5-2.7c-0.4-1.2-0.6-2.5-0.6-3.9C36.7,86,37,84.5,37.5,83 M35.1,91.2L35.1,91.2
			C35.1,91.2,35.1,91.2,35.1,91.2c0.1-0.1,0.1-0.1,0.1,0c0.8,1,2,2.7,2.5,5.1c0.1,0.3,0.3,0.5,0.5,0.5c0.3,0.1,0.5-0.1,0.7-0.3
			c0.1-0.2,1.2-1.7,2.6-2.8c0,0,0.1,0,0.1,0c0,0,0,0.1,0,0.1c0,0.7-0.1,1.5-0.3,2.2c-0.5,2.4-1.7,4.4-3.5,6c0,0,0,0-0.1,0
			c0,0,0,0-0.1,0c-0.4-0.4-1.2-1.2-1.8-2.5c-0.6-1.1-0.9-2.4-1.1-3.8C34.7,94.3,34.8,92.8,35.1,91.2 M33.8,99.5
			C33.8,99.5,33.8,99.4,33.8,99.5c0.1-0.1,0.1-0.1,0.1-0.1c0.9,0.9,2.1,2.6,2.7,5c0.1,0.3,0.3,0.5,0.6,0.5c0.3,0,0.5-0.1,0.7-0.4
			c0-0.1,0.8-1.7,2.2-2.9c0,0,0.1,0,0.1,0c0,0,0.1,0,0.1,0.1c0,0.8-0.1,1.7-0.2,2.5c-0.4,2.5-1.4,4.5-2.9,6c0,0,0,0-0.1,0
			c0,0,0,0-0.1,0c-0.3-0.3-1.2-1.1-1.9-2.4c-0.6-1.1-1-2.4-1.2-3.8C33.6,102.6,33.6,101.1,33.8,99.5 M33.1,108.2L33.1,108.2
			C33.1,108.2,33.1,108.1,33.1,108.2c0.1-0.1,0.1-0.1,0.1-0.1c0.2,0.2,0.4,0.3,0.5,0.5c0.8,0.8,1.8,2.2,2.5,4.3
			c0.1,0.3,0.3,0.5,0.6,0.5c0,0,0,0,0,0c0.3,0,0.6-0.3,0.6-0.6c0,0,0.3-1.8,1.8-3.2c0,0,0.1,0,0.1,0c0,0,0,0,0.1,0.1
			c0.2,1,0.3,2.5,0,4.1c-0.3,1.9-1.1,3.6-2.4,4.8c0,0,0,0-0.1,0c0,0,0,0,0,0C35.7,117.7,32.7,114.8,33.1,108.2 M32.8,116.6
			C32.8,116.6,32.9,116.6,32.8,116.6c0.3,0.2,0.5,0.3,0.7,0.5c0.9,0.7,2,2,2.9,4c0.1,0.2,0.3,0.4,0.6,0.4l0,0l0,0
			c0.3,0,0.5-0.2,0.6-0.4c0-0.1,0.8-1.9,2-3.3c0,0,0.1,0,0.1,0c0,0,0.1,0,0.1,0.1c0.4,1.8,0.6,5.3-2,8.9c0,0,0,0-0.1,0c0,0,0,0,0,0
			C36.3,125.9,33,123.3,32.8,116.6C32.8,116.6,32.8,116.6,32.8,116.6 M33.2,125.4L33.2,125.4C33.2,125.4,33.2,125.4,33.2,125.4
			c0.1-0.1,0.1-0.1,0.1-0.1c1.2,0.6,2.8,1.7,4.2,3.8c0.2,0.2,0.4,0.3,0.7,0.3c0.3-0.1,0.5-0.3,0.5-0.5v0c0-0.1,0.5-2.1,1.4-3.7
			c0,0,0,0,0.1,0h0c0,0,0.1,0,0.1,0.1c0.3,0.7,0.6,1.5,0.8,2.2c0.5,2.4,0.1,4.7-1.2,6.9c0,0,0,0-0.1,0c0,0,0,0,0,0
			c-0.4-0.2-1.5-0.6-2.6-1.6c-1-0.8-1.8-1.9-2.5-3.2C34.1,128.5,33.6,127,33.2,125.4 M35.2,133.6L35.2,133.6
			C35.2,133.5,35.2,133.5,35.2,133.6c0.1-0.1,0.1-0.1,0.1-0.1c0.2,0.1,0.4,0.2,0.7,0.3c1,0.5,2.5,1.5,3.8,3.2
			c0.2,0.2,0.4,0.3,0.7,0.2c0.3-0.1,0.5-0.3,0.5-0.5c0-0.1,0.3-2,1.1-3.6c0,0,0-0.1,0.1-0.1c0,0,0.1,0,0.1,0.1c0.8,1.8,2,5.4,0.3,9
			c0,0,0,0-0.1,0c0,0,0,0,0,0C40.9,141.7,37.1,139.9,35.2,133.6 M40.1,145.7c-0.9-1.1-1.7-2.4-2.3-3.9c0,0,0-0.1,0-0.1
			c0,0,0.1,0,0.1,0c0.2,0.1,0.5,0.1,0.7,0.2c1.1,0.4,2.6,1.2,4.2,2.7c0.2,0.2,0.5,0.3,0.7,0.2c0.3-0.1,0.4-0.3,0.4-0.6
			c0,0,0.1-1.9,0.6-3.7c0,0,0-0.1,0.1-0.1c0,0,0.1,0,0.1,0c0.4,0.7,0.7,1.4,1,2.2c0.9,2.4,1,4.6,0.4,6.7c0,0,0,0.1-0.1,0.1h0
			c-0.4-0.1-1.6-0.3-2.9-1.1C42,147.7,41,146.8,40.1,145.7 M41.3,149.5C41.3,149.5,41.3,149.5,41.3,149.5c0-0.1,0.1-0.1,0.1-0.1
			c1.3,0.2,3.2,0.8,5.2,2.4c0.2,0.2,0.5,0.2,0.7,0.1c0.2-0.1,0.4-0.4,0.3-0.7c0-0.1-0.2-1.8,0.2-3.7c0,0,0-0.1,0.1-0.1
			c0,0,0.1,0,0.1,0c0.5,0.7,0.9,1.4,1.2,2.1c0.8,1.6,1.6,4,1.2,6.5c0,0,0,0.1-0.1,0.1c-0.5,0-1.7-0.2-3-0.8
			c-1.2-0.5-2.3-1.3-3.3-2.3C43,152.2,42.1,150.9,41.3,149.5 M48.7,160.1c-1.1-0.9-2.2-2-3.1-3.3c0,0,0-0.1,0-0.1c0,0,0.1-0.1,0.1,0
			c1.3,0.1,3.3,0.5,5.4,1.8c0.2,0.1,0.5,0.1,0.8,0c0.2-0.2,0.3-0.4,0.3-0.7c0,0-0.4-1.8-0.2-3.6c0,0,0-0.1,0.1-0.1c0,0,0.1,0,0.1,0
			c1.3,1.6,3.6,4.9,3.3,8.3c0,0,0,0.1-0.1,0.1c-0.1,0-0.2,0-0.3,0c-0.6,0-1.6-0.1-2.7-0.4C51,161.6,49.9,161,48.7,160.1 M60.8,168.1
			c-0.2,0-0.6,0.1-1.1,0.1c-0.5,0-1.1-0.1-1.7-0.2c-2.4-0.5-4.8-1.9-7.2-4.1c0,0,0-0.1,0-0.1c0,0,0-0.1,0.1-0.1
			c1.3-0.2,3.3-0.2,5.7,0.8c0.3,0.1,0.5,0,0.7-0.2c0.2-0.2,0.2-0.5,0.1-0.7c0,0-0.7-1.7-0.9-3.6c0,0,0-0.1,0.1-0.1c0,0,0.1,0,0.1,0
			C58.3,161.4,61.1,164.2,60.8,168.1C60.9,168.1,60.9,168.1,60.8,168.1 M76.8,175.1c-1.9-0.5-3.7-1.2-5.6-1.9c-3.1-1.3-6.1-3-9-5
			c0,0,0,0,0,0c0.1-1.1-0.1-2.3-0.5-3.4c0,0,0,0,0,0c0,0,0,0,0,0c2.2,1.8,4.1,3.3,6.3,4.4c2.5,1.4,5,2.5,7.7,3.3v0l0.7,0.2
			c-0.1,0.9,0.2,1.8,0.7,2.6L76.8,175.1z M81.2,173.1c-0.3,0.9-0.3,1.9,0.2,2.8c0,0,0,0.1,0,0.1c0,0-0.1,0-0.1,0c0,0,0,0,0,0
			c-1.2-0.4-2-0.9-2.6-1.6c-0.5-0.6-0.6-1.2-0.5-1.9c0.1-0.6,0.3-0.9,0.7-1.2c0.7-0.5,2-0.6,3.8-0.5c0,0,0.1,0,0.1,0.1
			c0,0,0,0.1,0,0.1C82,171.6,81.5,172.2,81.2,173.1 M86.5,181.5c-1.3,0-2.3-1-2.3-2.3c0-1.3,1-2.3,2.3-2.3c1.3,0,2.3,1,2.3,2.3
			C88.8,180.5,87.8,181.5,86.5,181.5 M89.3,176.2c0,0-0.1,0-0.1,0c-0.7-0.7-1.7-1-2.7-1c-1,0-1.9,0.4-2.7,1c0,0-0.1,0-0.1,0
			c0,0-0.1,0-0.1,0c-0.6-0.6-1.2-1.6-0.9-2.5c0.8-2.1,3.6-2.1,3.7-2.1c0.2,0,0.9,0,1.6,0.3c1.1,0.3,1.8,0.9,2.1,1.8
			C90.5,174.6,89.9,175.5,89.3,176.2 M94.3,174.5c-0.5,0.6-1.4,1.2-2.6,1.6l0,0c0,0-0.1,0-0.1,0c0,0,0-0.1,0-0.1
			c0.5-1,0.5-1.9,0.2-2.8c-0.3-0.8-0.8-1.5-1.5-2c0,0-0.1-0.1,0-0.1c0,0,0.1-0.1,0.1-0.1c1.2-0.1,2.9-0.1,3.8,0.5
			c0.4,0.3,0.7,0.7,0.7,1.2C95,173.3,94.8,173.9,94.3,174.5 M110.8,168.1C110.8,168.1,110.8,168.1,110.8,168.1
			c-0.7,0.5-3.1,2.3-6.7,4.1c-2.5,1.2-5.1,2.2-7.7,2.9l-0.5,0.1c0.5-0.8,0.8-1.7,0.7-2.6l0.8-0.2v0c2.6-0.8,5.1-1.9,7.6-3.2
			c2.3-1.3,4.4-2.9,6.3-4.5c0,0,0,0,0,0c0,0,0,0,0,0C110.9,165.8,110.8,167,110.8,168.1 M104.1,167.8c-2.5,1.4-5,2.5-7.6,3.2
			l-0.2,0.1c-0.3-0.5-0.6-0.9-1.1-1.2c-2.5-1.6-7.2-0.4-8.6,0c0,0,0,0-0.1,0c-1.4-0.4-6.1-1.6-8.6,0c-0.5,0.3-0.9,0.7-1.1,1.2
			l-0.4-0.1c-2.5-0.8-5.1-1.8-7.4-3.2c-5.4-3-10.2-7.4-14.4-12.9c-1.4-1.9-2.8-4-4-6.1c0,0,0,0,0,0c0,0,0,0,0,0
			c2.9-1.3,10.2-4.6,16.6-7.9c0,0,0,0,0,0s0,0,0,0c0,0.3,0.1,0.5,0.2,0.8c0.5,1.2,1.9,1.7,3,1.8c0.3,0,0.6,0.1,1,0.1c0,0,0,0,0,0
			c0.4,1,1.3,1.7,2.5,2.2c0.4,0.1,0.9,0.2,1.4,0.3c0,0,0,0,0,0c0.2,0.6,0.6,1,1.1,1.4c1.2,0.8,3,0.7,3.9,0.6c0,0,0,0,0,0
			c0.5,0.7,1.2,1.1,2.1,1.3c0.8,0.2,1.7,0.1,2.6-0.3c0,0,0,0,0,0c0,0,0,0,0,0v11.2c0,0.8,0.6,1.4,1.4,1.4c0.8,0,1.4-0.6,1.4-1.4
			v-11.7c0,0,0,0,0,0c0,0,0,0,0,0c1.5,0.3,2.8,0,3.5-0.3c0.7-0.3,1.2-0.6,1.5-0.9c0,0,0,0,0,0c1.4,0.2,2.7-0.1,3.7-1.1
			c0.3-0.3,0.6-0.6,0.8-1c0,0,0,0,0,0h0c0.1,0,0.2,0,0.3,0c1.8,0,2.9-0.8,3.5-1.5c0.3-0.3,0.5-0.7,0.7-1.1c0,0,0,0,0,0
			c1.2-0.1,2.2-0.4,2.9-1.1c0.3-0.3,0.6-0.7,0.8-1.1c0,0,0,0,0,0c0,0,0,0,0,0c5.1,4,13.2,7.5,16.4,8.9c0,0,0,0,0,0c0,0,0,0,0,0
			c-1.2,2-2.5,3.9-3.8,5.7C114.3,160.4,109.5,164.7,104.1,167.8 M122.2,163.9L122.2,163.9c-3,2.8-5.6,3.8-7.2,4.1
			c-0.6,0.1-1.1,0.2-1.7,0.2c-0.5,0-0.9,0-1.1-0.1c0,0-0.1,0-0.1-0.1c-0.1-2.2,0.7-4.3,2.4-6.3c0.5-0.6,1.1-1.2,1.8-1.8
			c0,0,0.1,0,0.1,0c0,0,0.1,0.1,0,0.1c-0.2,1.8-0.9,3.5-0.9,3.5c-0.1,0.2-0.1,0.5,0.1,0.7c0.2,0.2,0.5,0.2,0.7,0.2
			c2.3-0.9,4.4-0.9,5.7-0.8C122.2,163.8,122.2,163.8,122.2,163.9C122.2,163.8,122.2,163.9,122.2,163.9 M127.5,156.8
			c-1,1.3-2,2.4-3.1,3.3c-1.1,0.9-2.3,1.5-3.5,1.9c-1.1,0.4-2.1,0.4-2.7,0.4c-0.1,0-0.2,0-0.3,0c0,0-0.1,0-0.1-0.1
			c-0.1-2.1,0.5-4.2,1.9-6.4c0.4-0.7,0.9-1.3,1.5-1.9c0,0,0.1,0,0.1,0c0,0,0.1,0,0.1,0.1c0.2,1.8-0.2,3.5-0.2,3.7
			c-0.1,0.3,0.1,0.5,0.3,0.7c0.2,0.2,0.5,0.2,0.7,0c2.1-1.4,4.1-1.7,5.4-1.8C127.5,156.7,127.5,156.7,127.5,156.8
			C127.5,156.8,127.5,156.8,127.5,156.8 M131.9,149.5c-0.8,1.4-1.7,2.6-2.7,3.6c-1,1-2.1,1.8-3.3,2.3c-1.4,0.6-2.5,0.7-3,0.8
			c0,0-0.1,0-0.1-0.1c-0.4-2.1,0-4.3,1.2-6.5c0.4-0.7,0.8-1.4,1.2-2.1c0,0,0.1,0,0.1,0c0,0,0.1,0,0.1,0.1c0.4,1.8,0.2,3.7,0.2,3.7
			c0,0.3,0.1,0.5,0.3,0.6c0.2,0.1,0.5,0.1,0.7-0.1c2-1.6,3.9-2.2,5.2-2.4C131.8,149.4,131.8,149.4,131.9,149.5
			C131.9,149.5,131.9,149.5,131.9,149.5 M135.4,141.6L135.4,141.6c-0.7,1.5-1.5,2.9-2.4,4c-0.9,1.1-1.9,2-3,2.6
			c-1.2,0.7-2.3,1-2.9,1.1h0c0,0-0.1,0-0.1-0.1c-0.6-2.1-0.5-4.4,0.4-6.7c0.3-0.7,0.6-1.4,1-2.1c0,0,0.1-0.1,0.1,0
			c0,0,0.1,0,0.1,0.1c0.6,1.8,0.7,3.6,0.7,3.7c0,0.3,0.2,0.5,0.4,0.6c0.2,0.1,0.5,0,0.7-0.2h0c1.6-1.7,3.1-2.5,4.2-2.8
			c0.3-0.1,0.5-0.2,0.8-0.2C135.3,141.4,135.3,141.4,135.4,141.6C135.4,141.5,135.4,141.5,135.4,141.6 M137.9,133.5L137.9,133.5
			c-0.5,1.6-1.1,2.9-1.9,4.1c-0.8,1.2-1.7,2.2-2.7,2.9c-1.2,0.9-2.3,1.3-2.8,1.4h0c0,0-0.1,0-0.1-0.1c-1-2.4-0.7-5-0.3-6.8
			c0.2-0.8,0.4-1.6,0.8-2.4c0,0,0-0.1,0.1-0.1c0,0,0.1,0,0.1,0.1c0.7,1.7,1,3.7,1,3.8c0,0.3,0.2,0.5,0.5,0.6c0.3,0.1,0.5,0,0.7-0.2
			c1.6-1.9,3.3-2.9,4.6-3.4C137.8,133.4,137.8,133.4,137.9,133.5C137.9,133.5,137.9,133.5,137.9,133.5 M138.1,129.4
			c-0.6,1.3-1.4,2.4-2.3,3.2c-1,1-2,1.5-2.5,1.7c0,0,0,0,0,0c0,0-0.1,0-0.1,0c-1.1-1.9-1.5-4.2-1.2-6.8c0.1-0.8,0.3-1.6,0.5-2.4
			c0,0,0-0.1,0.1-0.1c0,0,0.1,0,0.1,0c0.9,1.6,1.5,3.6,1.5,3.7c0.1,0.3,0.3,0.5,0.5,0.5c0.3,0,0.5-0.1,0.7-0.3c1.3-2.1,3-3.3,4.1-4
			c0,0,0.1,0,0.1,0c0,0,0,0.1,0,0.1C139.2,126.7,138.8,128.1,138.1,129.4"/>
		<path class="st0" d="M203.2,149.7l-3-9.3c-0.1-0.3-0.4-0.5-0.7-0.5h-13c-0.3,0-0.6,0.2-0.7,0.5l-3,9.3c-0.1,0.3-0.4,0.5-0.7,0.5
			h-4.8c-0.5,0-0.9-0.5-0.7-1l11.6-34.6c0.1-0.3,0.4-0.5,0.7-0.5h8.3c0.3,0,0.6,0.2,0.7,0.5l11.6,34.6c0.2,0.5-0.2,1-0.7,1h-4.8
			C203.6,150.2,203.3,150,203.2,149.7 M188.6,134.6h8.6c0.5,0,0.9-0.5,0.7-1l-4.3-13.1c-0.2-0.7-1.2-0.7-1.5,0l-4.3,13.1
			C187.7,134,188,134.6,188.6,134.6"/>
		<path class="st0" d="M214.2,123.5h3.8c0.4,0,0.7,0.3,0.8,0.7l0.4,2.8h0.3c0.8-1.3,1.8-2.2,3.1-2.8c1.3-0.6,2.7-1,4.2-1
			c0.5,0,1,0,1.4,0.1c0.4,0,0.7,0.4,0.7,0.8v4.2c0,0.5-0.4,0.8-0.8,0.8c-0.5,0-1-0.1-1.7-0.1c-1.3,0-2.5,0.3-3.8,0.8
			c-1.1,0.5-2,1.1-2.7,2c-0.1,0.1-0.2,0.3-0.2,0.5v17.1c0,0.4-0.4,0.8-0.8,0.8h-4.8c-0.4,0-0.8-0.3-0.8-0.8v-25.1
			C213.4,123.9,213.8,123.5,214.2,123.5"/>
		<path class="st0" d="M236.7,161.1c-1.3-0.2-2.5-0.4-3.6-0.7c-0.3-0.1-0.6-0.4-0.6-0.8v-3.5c0-0.5,0.5-0.9,1-0.7
			c2.5,0.6,4.9,1,7.1,1c1.8,0,3.3-0.2,4.4-0.7c1.1-0.5,2-1.2,2.5-2.2c0.5-1,0.8-2.4,0.8-4v-2.1h-0.3c-0.8,1-1.8,1.7-3,2.2
			c-1.2,0.5-2.5,0.8-4,0.8c-1.9,0-3.6-0.5-5.2-1.4c-1.5-0.9-2.8-2.4-3.7-4.3c-0.9-1.9-1.4-4.4-1.4-7.3c0-4.7,1.2-8.2,3.7-10.6
			c2.4-2.4,6.1-3.6,10.9-3.6c1.6,0,3.2,0.1,5,0.4c1.5,0.2,2.8,0.5,4,0.9c0.3,0.1,0.5,0.4,0.5,0.8v23.2c0,3.1-0.5,5.6-1.5,7.5
			c-1,1.9-2.5,3.3-4.5,4.3c-2,0.9-4.6,1.4-7.7,1.4C239.6,161.4,238.2,161.3,236.7,161.1 M246.1,144.6c0.8-0.3,1.5-0.8,2.1-1.4
			c0.1-0.1,0.2-0.3,0.2-0.5v-13.6c0-0.4-0.3-0.7-0.6-0.8c-1-0.2-2-0.3-3-0.3c-2.5,0-4.4,0.7-5.7,2.1c-1.3,1.4-1.9,3.6-1.9,6.7
			c0,3,0.5,5.2,1.6,6.4c1.1,1.2,2.6,1.9,4.5,1.9C244.3,145.2,245.2,145,246.1,144.6"/>
		<path class="st0" d="M282,138.8h-14.9c-0.5,0-0.8,0.4-0.8,0.9c0.1,1.3,0.4,2.4,0.9,3.2c0.6,1,1.5,1.8,2.6,2.2
			c1.2,0.5,2.8,0.7,4.8,0.7c1.7,0,3.6-0.2,5.7-0.7c0.5-0.1,1,0.3,1,0.8v3.3c0,0.4-0.3,0.7-0.6,0.8c-2.3,0.5-4.7,0.8-7,0.8
			c-3.2,0-5.8-0.5-7.8-1.4c-2-1-3.6-2.5-4.6-4.5c-1-2-1.5-4.7-1.5-7.9c0-3,0.5-5.5,1.4-7.5c0.9-2.1,2.3-3.6,4-4.6
			c1.8-1,3.9-1.6,6.4-1.6c3.6,0,6.4,1.2,8.3,3.5c1.9,2.3,2.8,5.8,2.8,10.4v1C282.8,138.4,282.4,138.8,282,138.8 M267.7,129.1
			c-0.8,1-1.3,2.7-1.4,5.1c0,0.4,0.3,0.8,0.8,0.8h8.9c0.4,0,0.8-0.4,0.8-0.8c-0.1-2.3-0.6-4-1.3-5.1c-0.9-1.2-2.1-1.8-3.8-1.8
			C269.9,127.3,268.6,127.9,267.7,129.1"/>
		<path class="st0" d="M288.3,123.5h3.9c0.4,0,0.7,0.3,0.8,0.7l0.3,2.1h0.3c1-1,2.2-1.8,3.6-2.4c1.4-0.5,2.9-0.8,4.4-0.8
			c2.7,0,4.9,0.8,6.5,2.4c1.6,1.6,2.4,4.2,2.4,7.7v16.2c0,0.4-0.4,0.8-0.8,0.8h-4.8c-0.4,0-0.8-0.3-0.8-0.8v-15.8
			c0-1.8-0.4-3-1.1-3.8c-0.7-0.8-1.8-1.1-3.3-1.1c-1.1,0-2.1,0.2-3.2,0.7c-1,0.4-1.8,1-2.4,1.8c-0.1,0.1-0.2,0.3-0.2,0.5v17.8
			c0,0.4-0.3,0.8-0.8,0.8h-4.8c-0.4,0-0.8-0.3-0.8-0.8v-25.1C287.5,123.9,287.9,123.5,288.3,123.5"/>
		<path class="st0" d="M332.5,145.9v3.6c0,0.4-0.3,0.7-0.6,0.8c-1.3,0.3-2.7,0.4-4,0.4c-6.3,0-9.5-3.2-9.5-9.6v-11.7
			c0-0.4-0.3-0.8-0.8-0.8h-3c-0.4,0-0.8-0.3-0.8-0.8v-3.6c0-0.4,0.3-0.8,0.8-0.8h3.1c0.4,0,0.7-0.3,0.8-0.7l1-8.1
			c0-0.4,0.4-0.7,0.8-0.7h3.8c0.4,0,0.8,0.3,0.8,0.8v7.9c0,0.4,0.4,0.8,0.8,0.8h5.9c0.4,0,0.8,0.4,0.8,0.8v3.6
			c0,0.4-0.3,0.8-0.8,0.8h-5.9c-0.4,0-0.8,0.3-0.8,0.8v10.7c0,1.3,0.2,2.3,0.5,3.1c0.3,0.8,0.8,1.3,1.5,1.7c0.7,0.3,1.6,0.5,2.7,0.5
			c0.6,0,1.3-0.1,2.1-0.2C332.1,145.1,332.5,145.5,332.5,145.9"/>
		<path class="st0" d="M337.2,118.1c-0.7-0.6-1-1.5-1-2.6c0-1.1,0.3-2,1-2.6c0.7-0.6,1.7-0.9,3-0.9c1.4,0,2.4,0.3,3,0.9
			c0.7,0.6,1,1.5,1,2.6c0,1.1-0.3,2-1,2.6c-0.7,0.6-1.7,0.9-3,0.9C338.9,119,337.9,118.7,337.2,118.1 M337,149.4v-25.1
			c0-0.4,0.3-0.8,0.8-0.8h4.9c0.4,0,0.8,0.3,0.8,0.8v25.1c0,0.4-0.3,0.8-0.8,0.8h-4.9C337.4,150.2,337,149.8,337,149.4"/>
		<path class="st0" d="M349.5,123.5h3.9c0.4,0,0.7,0.3,0.8,0.7l0.3,2.1h0.3c1-1,2.2-1.8,3.6-2.4c1.4-0.5,2.9-0.8,4.4-0.8
			c2.8,0,4.9,0.8,6.5,2.4c1.6,1.6,2.4,4.2,2.4,7.7v16.2c0,0.4-0.4,0.8-0.8,0.8H366c-0.4,0-0.8-0.3-0.8-0.8v-15.8
			c0-1.8-0.4-3-1.1-3.8c-0.7-0.8-1.8-1.1-3.3-1.1c-1.1,0-2.1,0.2-3.2,0.7c-1,0.4-1.8,1-2.4,1.8c-0.1,0.1-0.2,0.3-0.2,0.5v17.8
			c0,0.4-0.4,0.8-0.8,0.8h-4.8c-0.4,0-0.8-0.3-0.8-0.8v-25.1C348.7,123.9,349,123.5,349.5,123.5"/>
		<path class="st0" d="M393.2,124.1c1.7,0.7,2.9,1.8,3.7,3.3c0.8,1.5,1.2,3.6,1.2,6.3v15.6c0,0.4-0.3,0.8-0.8,0.8h-3.9
			c-0.4,0-0.7-0.3-0.8-0.7l-0.3-2.1h-0.3c-0.8,1.1-1.8,1.9-3.1,2.4c-1.3,0.5-2.7,0.8-4.2,0.8c-1.7,0-3.2-0.3-4.5-0.9
			c-1.3-0.6-2.2-1.5-2.9-2.6c-0.7-1.1-1-2.5-1-4c0-2.5,0.8-4.4,2.5-5.7c1.7-1.3,4.4-2.2,8-2.5l5-0.5v-1c0-1.3-0.2-2.4-0.6-3.2
			c-0.4-0.8-1.1-1.3-2-1.7c-0.9-0.3-2.2-0.5-3.7-0.5c-1.1,0-2.3,0.1-3.5,0.3c-0.9,0.1-1.8,0.3-2.7,0.5c-0.5,0.1-1-0.2-1-0.7v-3.3
			c0-0.4,0.2-0.7,0.6-0.8c1.1-0.3,2.2-0.5,3.5-0.7c1.5-0.2,2.9-0.3,4.2-0.3C389.4,123.1,391.6,123.5,393.2,124.1 M389.6,145.6
			c0.8-0.3,1.5-0.8,2.2-1.5c0.1-0.2,0.2-0.4,0.2-0.6V139c0-0.5-0.4-0.8-0.9-0.8l-3.5,0.3c-1.7,0.2-2.9,0.6-3.7,1.2
			c-0.8,0.6-1.2,1.5-1.2,2.7c0,1.2,0.3,2.1,1,2.7c0.7,0.6,1.7,0.9,3,0.9C387.8,146.1,388.7,145.9,389.6,145.6"/>
		<polygon class="st0" points="200.5,67.1 206.3,67.1 206.3,93.6 201.8,93.6 201.8,73.6 194.6,89.8 190.6,89.8 183.3,74 183.3,93.6 
			178.8,93.6 178.8,67.1 184.6,67.1 192.7,85 		"/>
		<path class="st0" d="M211.5,70.1c-0.5-0.4-0.7-1.1-0.7-1.9c0-0.8,0.2-1.5,0.7-1.9c0.5-0.4,1.2-0.7,2.2-0.7c1,0,1.7,0.2,2.2,0.7
			c0.5,0.4,0.7,1.1,0.7,1.9c0,0.8-0.2,1.5-0.7,1.9c-0.5,0.4-1.2,0.7-2.2,0.7C212.7,70.7,212,70.5,211.5,70.1 M211.3,74.1h4.7v19.5
			h-4.7V74.1z"/>
		<path class="st0" d="M220.7,74.1h3.9l0.3,2.1h0.3c0.7-0.8,1.6-1.3,2.6-1.8c1-0.4,2.1-0.6,3.2-0.6c2,0,3.6,0.6,4.8,1.8
			c1.2,1.2,1.8,3.1,1.8,5.6v12.4h-4.7V81.4c0-1.3-0.3-2.2-0.8-2.8c-0.6-0.6-1.4-0.8-2.4-0.8c-0.8,0-1.6,0.2-2.3,0.5
			c-0.8,0.3-1.4,0.8-1.9,1.5v13.8h-4.7V74.1z"/>
		<path class="st0" d="M242.2,70.1c-0.5-0.4-0.7-1.1-0.7-1.9c0-0.8,0.2-1.5,0.7-1.9c0.5-0.4,1.2-0.7,2.2-0.7c1,0,1.7,0.2,2.2,0.7
			c0.5,0.4,0.7,1.1,0.7,1.9c0,0.8-0.2,1.5-0.7,1.9c-0.5,0.4-1.2,0.7-2.2,0.7C243.4,70.7,242.7,70.5,242.2,70.1 M242,74.1h4.7v19.5
			H242V74.1z"/>
		<path class="st0" d="M250.8,93.1v-3.5c1.9,0.6,3.9,0.9,5.9,0.9c1.4,0,2.4-0.2,3-0.6c0.6-0.4,1-1,1-1.8c0-0.6-0.2-1.1-0.5-1.5
			c-0.3-0.3-0.9-0.6-1.7-0.8l-3-0.6c-1.8-0.4-3.1-1-3.9-1.9c-0.8-0.9-1.2-2.1-1.2-3.6c0-1.2,0.3-2.3,1-3.2c0.6-0.9,1.6-1.6,2.9-2.1
			s2.9-0.8,4.8-0.8c1.8,0,3.5,0.2,5,0.6v3.5c-1.5-0.4-3.2-0.6-4.9-0.6c-2.9,0-4.4,0.8-4.4,2.4c0,0.6,0.2,1,0.5,1.4
			c0.3,0.3,0.9,0.6,1.7,0.8l3,0.6c1.8,0.4,3.1,1,3.9,1.8c0.8,0.9,1.3,2.1,1.3,3.7c0,1.2-0.3,2.3-1,3.2c-0.6,0.9-1.6,1.6-2.8,2.1
			c-1.2,0.5-2.8,0.7-4.5,0.7C254.5,94,252.6,93.7,250.8,93.1"/>
		<path class="st0" d="M279.9,89.8v3.8c-1.1,0.3-2.3,0.4-3.4,0.4c-4.6,0-6.9-2.3-6.9-7v-9.1h-3.4v-3.7h3.4l0.8-7h3.9v7h5.5v3.7h-5.5
			v8.4c0,1,0.1,1.7,0.4,2.3c0.2,0.6,0.6,1,1.1,1.2c0.5,0.2,1.2,0.4,2,0.4C278.3,90,279,90,279.9,89.8"/>
		<path class="st0" d="M298.4,85.2h-12.1c0.1,1.3,0.3,2.3,0.7,3c0.4,0.7,1.1,1.3,1.9,1.6c0.9,0.3,2,0.5,3.5,0.5
			c1.4,0,3.1-0.2,4.9-0.7v3.6c-1.9,0.5-3.7,0.7-5.5,0.7c-2.3,0-4.2-0.4-5.7-1.1c-1.5-0.7-2.6-1.8-3.4-3.3c-0.7-1.5-1.1-3.4-1.1-5.8
			c0-2.2,0.3-4,1-5.5c0.7-1.5,1.7-2.6,3-3.4c1.3-0.8,2.8-1.1,4.7-1.1c2.7,0,4.7,0.9,6.1,2.6c1.4,1.7,2.1,4.3,2.1,7.6V85.2z
			 M287.3,78.1c-0.7,0.9-1,2.3-1,4.3h7.7c0-2-0.4-3.5-1-4.3c-0.6-0.9-1.6-1.3-2.8-1.3C288.9,76.8,287.9,77.2,287.3,78.1"/>
		<path class="st0" d="M301.8,74.1h3.9l0.4,2.5h0.3c0.6-0.9,1.3-1.6,2.3-2.1c0.9-0.5,2-0.7,3.1-0.7c0.5,0,1,0,1.6,0.1v4.3
			c-0.5-0.1-1.1-0.1-1.8-0.1c-0.9,0-1.8,0.2-2.8,0.6c-0.9,0.4-1.6,0.9-2.1,1.6v13.3h-4.7V74.1z"/>
		<path class="st0" d="M316.1,70.1c-0.5-0.4-0.7-1.1-0.7-1.9c0-0.8,0.2-1.5,0.7-1.9c0.5-0.4,1.2-0.7,2.2-0.7c1,0,1.7,0.2,2.2,0.7
			c0.5,0.4,0.8,1.1,0.8,1.9c0,0.8-0.3,1.5-0.8,1.9c-0.5,0.4-1.2,0.7-2.2,0.7C317.4,70.7,316.6,70.5,316.1,70.1 M316,74.1h4.7v19.5
			H316V74.1z"/>
		<path class="st0" d="M326.8,91.4c-1.6-1.7-2.4-4.2-2.4-7.6c0-3.4,0.8-5.9,2.4-7.6c1.6-1.7,3.8-2.5,6.7-2.5c2.9,0,5.1,0.8,6.7,2.5
			c1.6,1.7,2.4,4.2,2.4,7.6c0,2.3-0.4,4.1-1.1,5.6c-0.7,1.5-1.8,2.6-3.1,3.4c-1.4,0.7-3,1.1-4.9,1.1
			C330.7,93.9,328.4,93.1,326.8,91.4 M336.8,88.9c0.7-1,1.1-2.6,1.1-5c0-2.4-0.4-4.1-1.1-5c-0.7-1-1.8-1.5-3.3-1.5
			c-1.4,0-2.5,0.5-3.3,1.5c-0.7,1-1.1,2.6-1.1,5c0,1.6,0.2,2.9,0.5,3.8c0.3,1,0.8,1.6,1.5,2.1c0.6,0.4,1.4,0.6,2.4,0.6
			C335,90.3,336,89.8,336.8,88.9"/>
		<path class="st0" d="M358.2,92.9c-1.2-0.7-2.1-1.7-2.8-3.2c-0.7-1.4-1.1-3.3-1.1-5.5c0-3.4,0.9-6,2.6-7.8c1.8-1.8,4.3-2.7,7.7-2.7
			c0.8,0,1.7,0.1,2.6,0.2v-9.3h4.7v28.9h-4l-0.3-2.1h-0.3c-0.6,0.7-1.3,1.3-2.2,1.8c-0.9,0.4-1.9,0.6-3,0.6
			C360.7,93.9,359.4,93.6,358.2,92.9 M365.6,89.6c0.7-0.3,1.2-0.7,1.7-1.3V77.6c-0.8-0.2-1.7-0.3-2.6-0.3c-1.9,0-3.3,0.5-4.2,1.5
			c-0.9,1-1.4,2.7-1.4,4.9c0,2.3,0.4,3.9,1.2,4.8c0.8,0.9,1.9,1.4,3.3,1.4C364.2,90.1,364.9,89.9,365.6,89.6"/>
		<path class="st0" d="M392.5,85.2h-12.1c0.1,1.3,0.3,2.3,0.7,3c0.4,0.7,1.1,1.3,1.9,1.6c0.9,0.3,2,0.5,3.5,0.5
			c1.4,0,3.1-0.2,4.9-0.7v3.6c-1.9,0.5-3.7,0.7-5.5,0.7c-2.3,0-4.2-0.4-5.7-1.1c-1.5-0.7-2.6-1.8-3.4-3.3c-0.7-1.5-1.1-3.4-1.1-5.8
			c0-2.2,0.3-4,1-5.5c0.7-1.5,1.7-2.6,3-3.4c1.3-0.8,2.8-1.1,4.7-1.1c2.7,0,4.7,0.9,6.1,2.6c1.4,1.7,2.1,4.3,2.1,7.6V85.2z
			 M381.4,78.1c-0.7,0.9-1,2.3-1,4.3h7.7c0-2-0.4-3.5-1-4.3c-0.6-0.9-1.6-1.3-2.8-1.3C383,76.8,382.1,77.2,381.4,78.1"/>
		<polygon class="st0" points="409.9,89.7 423.2,89.7 423.2,93.6 405.2,93.6 405.2,67.1 423,67.1 423,70.9 409.9,70.9 409.9,78.1 
			421.2,78.1 421.2,82 409.9,82 		"/>
		<path class="st0" d="M429.1,92.9c-1.2-0.7-2.1-1.7-2.8-3.2c-0.7-1.4-1-3.3-1-5.5c0-3.4,0.9-6,2.6-7.8c1.8-1.8,4.3-2.7,7.7-2.7
			c0.8,0,1.7,0.1,2.6,0.2v-9.3h4.7v28.9h-4l-0.3-2.1h-0.3c-0.6,0.7-1.3,1.3-2.2,1.8c-0.9,0.4-1.9,0.6-3,0.6
			C431.7,93.9,430.3,93.6,429.1,92.9 M436.6,89.6c0.7-0.3,1.2-0.7,1.7-1.3V77.6c-0.8-0.2-1.7-0.3-2.6-0.3c-1.9,0-3.3,0.5-4.2,1.5
			c-0.9,1-1.4,2.7-1.4,4.9c0,2.3,0.4,3.9,1.2,4.8c0.8,0.9,1.9,1.4,3.3,1.4C435.2,90.1,435.9,89.9,436.6,89.6"/>
		<path class="st0" d="M449.2,92.2c-1.2-1.2-1.8-3.1-1.8-5.6V74.1h4.7v12.2c0,1.3,0.3,2.2,0.8,2.8c0.5,0.6,1.3,0.8,2.3,0.8
			c0.8,0,1.5-0.2,2.3-0.5c0.8-0.3,1.4-0.8,1.9-1.5V74.1h4.7v19.5h-3.9l-0.3-2h-0.2c-0.8,0.8-1.6,1.4-2.6,1.8c-1,0.4-2,0.6-3.1,0.6
			C452,93.9,450.4,93.3,449.2,92.2"/>
		<path class="st0" d="M470.3,91.5c-1.6-1.7-2.5-4.2-2.5-7.6c0-3.4,0.9-6,2.6-7.6c1.7-1.7,4.3-2.5,7.6-2.5c1.5,0,2.9,0.2,4.2,0.5V78
			c-1.3-0.3-2.5-0.4-3.6-0.4c-1.4,0-2.5,0.2-3.4,0.6c-0.9,0.4-1.5,1.1-2,2c-0.4,0.9-0.6,2.1-0.6,3.6c0,2.3,0.4,3.9,1.3,4.9
			c0.9,1,2.3,1.5,4.1,1.5c0.6,0,1.2-0.1,1.9-0.2c0.7-0.1,1.4-0.3,2.3-0.5v3.8c-1.5,0.5-3.2,0.8-4.9,0.8
			C474.3,94,471.9,93.1,470.3,91.5"/>
		<path class="st0" d="M496.8,74.5c1.2,0.5,2.1,1.3,2.8,2.4c0.6,1.1,0.9,2.7,0.9,4.6v12h-3.9l-0.3-2h-0.3c-0.6,0.8-1.3,1.4-2.3,1.8
			c-0.9,0.4-1.9,0.6-3.1,0.6c-1.3,0-2.4-0.2-3.3-0.7c-0.9-0.5-1.6-1.1-2.1-1.9c-0.5-0.8-0.7-1.8-0.7-2.9c0-1.8,0.6-3.2,1.9-4.2
			c1.2-1,3.2-1.6,5.9-1.8l3.7-0.3v-0.8c0-1-0.2-1.8-0.5-2.3c-0.3-0.6-0.8-1-1.5-1.2c-0.7-0.2-1.6-0.4-2.7-0.4
			c-0.8,0-1.7,0.1-2.6,0.2c-0.9,0.1-1.8,0.3-2.7,0.6v-3.6c0.9-0.3,1.9-0.5,3-0.6c1.1-0.1,2.1-0.2,3.1-0.2
			C493.9,73.8,495.5,74,496.8,74.5 M494.1,90.2c0.6-0.3,1.2-0.7,1.7-1.3v-4.2l-3.2,0.3c-1.2,0.1-2.1,0.4-2.7,0.9
			c-0.6,0.5-0.9,1.1-0.9,2c0,0.9,0.3,1.5,0.8,2c0.5,0.5,1.2,0.7,2.2,0.7C492.8,90.6,493.4,90.5,494.1,90.2"/>
		<path class="st0" d="M506.4,91.5c-1.6-1.7-2.5-4.2-2.5-7.6c0-3.4,0.9-6,2.6-7.6c1.7-1.7,4.3-2.5,7.6-2.5c1.5,0,2.9,0.2,4.2,0.5V78
			c-1.3-0.3-2.5-0.4-3.6-0.4c-1.4,0-2.5,0.2-3.4,0.6c-0.9,0.4-1.5,1.1-2,2c-0.4,0.9-0.6,2.1-0.6,3.6c0,2.3,0.4,3.9,1.3,4.9
			c0.9,1,2.3,1.5,4.2,1.5c0.6,0,1.2-0.1,1.9-0.2c0.7-0.1,1.4-0.3,2.3-0.5v3.8c-1.5,0.5-3.2,0.8-4.9,0.8
			C510.4,94,508.1,93.1,506.4,91.5"/>
		<path class="st0" d="M521.9,70.1c-0.5-0.4-0.7-1.1-0.7-1.9c0-0.8,0.3-1.5,0.7-1.9c0.5-0.4,1.2-0.7,2.2-0.7c1,0,1.7,0.2,2.2,0.7
			c0.5,0.4,0.7,1.1,0.7,1.9c0,0.8-0.2,1.5-0.7,1.9c-0.5,0.4-1.2,0.7-2.2,0.7C523.2,70.7,522.4,70.5,521.9,70.1 M521.8,74.1h4.7v19.5
			h-4.7V74.1z"/>
		<path class="st0" d="M532.7,91.4c-1.6-1.7-2.4-4.2-2.4-7.6c0-3.4,0.8-5.9,2.4-7.6c1.6-1.7,3.8-2.5,6.7-2.5c2.9,0,5.1,0.8,6.7,2.5
			c1.6,1.7,2.4,4.2,2.4,7.6c0,2.2-0.4,4.1-1.1,5.6c-0.7,1.5-1.8,2.6-3.1,3.4c-1.4,0.7-3,1.1-4.9,1.1C536.5,94,534.3,93.1,532.7,91.4
			 M542.6,88.9c0.7-1,1.1-2.6,1.1-5c0-2.4-0.4-4-1.1-5c-0.7-1-1.8-1.5-3.3-1.5c-1.4,0-2.5,0.5-3.3,1.5c-0.7,1-1.1,2.6-1.1,5
			c0,1.6,0.2,2.9,0.5,3.8c0.3,1,0.8,1.6,1.5,2.1c0.6,0.4,1.4,0.6,2.4,0.6C540.8,90.3,541.9,89.8,542.6,88.9 M537.2,71.4l3.9-6.7h5
			l-4.7,6.7H537.2z"/>
		<path class="st0" d="M552.2,74.1h3.9l0.3,2.1h0.3c0.7-0.8,1.6-1.3,2.6-1.8c1-0.4,2.1-0.6,3.2-0.6c2,0,3.6,0.6,4.8,1.8
			c1.2,1.2,1.8,3.1,1.8,5.6v12.4h-4.7V81.4c0-1.3-0.3-2.2-0.8-2.8c-0.5-0.6-1.3-0.8-2.4-0.8c-0.8,0-1.6,0.2-2.3,0.5
			c-0.8,0.3-1.4,0.8-1.9,1.5v13.8h-4.7V74.1z"/>
	</g>
</g>
</svg>
